<?xml version="1.0" encoding="UTF-8"?>
<svg version="1.1" xmlns="http://www.w3.org/2000/svg" width="1759" height="229">
<path d="M0 0 C25 0 25 0 30.125 4.25 C31.06709076 5.8350728 32.00379929 7.42478248 32.87060547 9.05224609 C35.24732633 13.15113909 38.30859317 16.80892031 41.1875 20.5625 C42.49288458 22.30840287 43.79625763 24.05581147 45.09765625 25.8046875 C48.71789282 30.64303987 52.40468773 35.42583386 56.125 40.1875 C62.26695863 48.04865636 68.3418528 55.958471 74.39111328 63.89111328 C77.09085847 67.42986881 79.79569689 70.96472723 82.5 74.5 C83.5833575 75.91664819 84.66669084 77.33331485 85.75 78.75 C86.28625 79.45125 86.8225 80.1525 87.375 80.875 C96.3125 92.5625 96.3125 92.5625 105.25 104.25 C106.05570435 105.30356689 106.05570435 105.30356689 106.87768555 106.37841797 C107.95218809 107.78359887 109.0265712 109.18887109 110.10083008 110.59423828 C112.94326086 114.31242635 115.78824179 118.02862877 118.63671875 121.7421875 C119.23097656 122.51755859 119.82523437 123.29292969 120.4375 124.09179688 C121.57866595 125.58066182 122.72055855 127.06897017 123.86328125 128.55664062 C124.37632813 129.22630859 124.889375 129.89597656 125.41796875 130.5859375 C125.86938232 131.1742334 126.3207959 131.7625293 126.78588867 132.36865234 C127.90779534 133.87610868 128.9576507 135.43647605 130 137 C137.21916533 128.56699271 143.93532653 119.843418 150.55371094 110.93554688 C152.71712829 108.04027801 154.91679959 105.17368871 157.125 102.3125 C157.53194092 101.78503174 157.93888184 101.25756348 158.3581543 100.71411133 C159.57163125 99.14237666 160.78581262 97.57118593 162 96 C163.60480966 93.91716193 165.20896562 91.83382004 166.8125 89.75 C167.21742676 89.2238208 167.62235352 88.6976416 168.03955078 88.15551758 C171.5351695 83.61040125 175.01827087 79.05576093 178.5 74.5 C184.7760318 66.28795956 191.07604455 58.09470937 197.3828125 49.90625 C202.09947357 43.77914044 206.80466651 37.64347174 211.5 31.5 C213.66637315 28.66644212 215.83308044 25.83314004 218 23 C218.70503662 22.07791748 218.70503662 22.07791748 219.42431641 21.13720703 C219.8682373 20.55696777 220.3121582 19.97672852 220.76953125 19.37890625 C221.19500244 18.82098389 221.62047363 18.26306152 222.05883789 17.68823242 C223.28557518 16.09741575 224.5409772 14.52883507 225.796875 12.9609375 C228.06083163 10.09765941 228.06083163 10.09765941 229.515625 6.9765625 C231.0625 4.1875 231.0625 4.1875 236 0 C244.25 0 252.5 0 261 0 C261 71.94 261 143.88 261 218 C260.34 218 259.68 218 259 218 C257.82666016 216.62646484 257.82666016 216.62646484 256.5390625 214.7109375 C256.06726563 214.01613281 255.59546875 213.32132813 255.109375 212.60546875 C254.61953125 211.86941406 254.1296875 211.13335937 253.625 210.375 C252.90183594 209.30572266 252.90183594 209.30572266 252.1640625 208.21484375 C250.76854548 206.14811338 249.38252663 204.07543974 248 202 C247.32116634 201.11756559 246.64233269 200.23513119 245.94292831 199.32595634 C243.65844016 195.41530879 243.49393476 193.13626413 243.48101807 188.63479614 C243.46976619 187.55517382 243.46976619 187.55517382 243.458287 186.45374095 C243.43806529 184.05366196 243.44610114 181.65453268 243.45410156 179.25439453 C243.44536351 177.52938404 243.43487691 175.80438165 243.42277527 174.07939148 C243.39492306 169.4042115 243.39151041 164.7292961 243.39249516 160.0540452 C243.38936539 155.16527288 243.36374584 150.27661961 243.34051514 145.38790894 C243.29995651 136.13391807 243.27961473 126.87999768 243.26654124 117.62593162 C243.25067075 107.08904945 243.21225489 96.55228718 243.17194796 86.01547456 C243.08955087 64.34368926 243.03545754 42.67190959 243 21 C242.33395752 21.86592773 241.66791504 22.73185547 240.98168945 23.62402344 C240.08805421 24.78580793 239.1944181 25.94759175 238.30078125 27.109375 C237.86415161 27.6770459 237.42752197 28.2447168 236.97766113 28.82958984 C234.04876729 32.63728725 231.11852285 36.44394118 228.1875 40.25 C222.66639804 47.42431328 217.17015352 54.61761914 211.67333984 61.81054688 C208.41066502 66.07953838 205.14634813 70.34727434 201.88232422 74.61523438 C199.13583561 78.20660543 196.38977402 81.79830151 193.64453125 85.390625 C187.96898284 92.8165762 182.28379536 100.23477953 176.58203125 107.640625 C171.9315968 113.68637123 167.30466756 119.75016216 162.67333984 125.81054688 C159.41511237 130.07371932 156.15541545 134.33576848 152.89550781 138.59765625 C150.07316021 142.28776021 147.2522954 145.9789851 144.43359375 149.671875 C143.84835938 150.43822266 143.263125 151.20457031 142.66015625 151.99414062 C141.5438072 153.45602628 140.42789422 154.91824508 139.3125 156.38085938 C138.32139146 157.67837933 137.32790644 158.97408904 136.33154297 160.26757812 C135.12897695 161.83219281 133.94056744 163.40766344 132.75390625 164.984375 C132.17511719 165.64953125 131.59632813 166.3146875 131 167 C130.34 167 129.68 167 129 167 C127.17099487 164.57564757 125.45027553 162.13786907 123.75 159.625 C119.40364698 153.33135382 114.91816438 147.19764423 110.1875 141.1875 C105.1413811 134.77128932 100.19174975 128.29409538 95.3125 121.75 C90.14967737 114.83229376 84.90494116 107.99374999 79.546875 101.2265625 C75.71807845 96.38941877 71.97348705 91.4874724 68.22070312 86.59130859 C66.21342606 83.97462222 64.19983871 81.36279461 62.1875 78.75 C57.7200217 72.94538988 53.27145926 67.12638946 48.82373047 61.30664062 C43.02448962 53.72025537 37.20123013 46.15251055 31.37109375 38.58984375 C30.93240967 38.02040039 30.49372559 37.45095703 30.04174805 36.86425781 C28.83552639 35.29851781 27.62872286 33.73322613 26.421875 32.16796875 C24.55151515 29.72141739 22.69513483 27.26648394 20.84863281 24.80200195 C20.31361145 24.08808792 19.77859009 23.37417389 19.22735596 22.6386261 C18.82232849 22.09787949 18.41730103 21.55713287 18 21 C18.00682958 21.88438909 18.01365915 22.76877817 18.02069569 23.67996693 C18.18294614 45.2757069 18.2723776 66.87070178 18.28240681 88.46706867 C18.28898291 98.9113991 18.31951026 109.35459943 18.40795898 119.79858398 C18.48505874 128.90986257 18.51565455 138.0199573 18.49218339 147.13155144 C18.48135026 151.94928219 18.49259359 156.76451446 18.55968666 161.58184242 C19.04713449 198.53955442 19.04713449 198.53955442 6.98674011 211.96183777 C6.46205737 212.48666339 5.93737463 213.01148901 5.39679241 213.55221844 C3.76875091 215.15348727 3.76875091 215.15348727 2 218 C1.34 218 0.68 218 0 218 C0 146.06 0 74.12 0 0 Z " fill="#FFFFFF" transform="translate(0,0)"/>
<path d="M0 0 C1.9360199 0.23519897 1.9360199 0.23519897 4 1 C5.57878165 3.52521259 6.88200308 5.92828683 8.16015625 8.6015625 C8.5462355 9.3808461 8.93231476 10.1601297 9.33009338 10.96302795 C10.58789283 13.51055468 11.82530988 16.06740961 13.0625 18.625 C13.92841273 20.38962488 14.79544216 22.15370222 15.66357422 23.91723633 C18.12832992 28.93555758 20.56828707 33.96559974 23 39 C23.55703613 40.15129395 24.11407227 41.30258789 24.68798828 42.48876953 C26.84065572 46.94994351 28.97243299 51.42043881 31.08984375 55.8984375 C33.50221357 60.98502587 35.96786152 66.04455117 38.44140625 71.1015625 C38.83173035 71.90058487 39.22205444 72.69960724 39.62420654 73.52284241 C41.99122465 78.36841605 41.99122465 78.36841605 44.36578369 83.21029663 C45.46994382 85.45754693 46.56936972 87.70705838 47.66796875 89.95703125 C48.00486221 90.63919708 48.34175568 91.32136292 48.68885803 92.02420044 C51 96.77273171 51 96.77273171 51 99 C51.66 99 52.32 99 53 99 C53.36351562 97.78957031 53.72703125 96.57914062 54.1015625 95.33203125 C56.05375793 89.48797365 58.73984759 84.04808378 61.46481323 78.53134155 C63.05061673 75.31884661 64.6163069 72.09655858 66.18359375 68.875 C66.50487747 68.2154985 66.82616119 67.55599701 67.15718079 66.87651062 C70.32994298 60.35016457 73.3937631 53.77492499 76.4375 47.1875 C76.95739502 46.06778809 77.47729004 44.94807617 78.01293945 43.79443359 C80.69294109 38.01678891 83.35236675 32.23106318 85.97966003 26.42930603 C87.33337308 23.44678172 88.69872702 20.46966878 90.06594849 17.49331665 C90.72663756 16.047489 91.38204104 14.59923354 92.0319519 13.14852905 C92.93654505 11.13047807 93.8587028 9.12136981 94.78515625 7.11328125 C95.30988525 5.95610596 95.83461426 4.79893066 96.37524414 3.60668945 C98 1 98 1 100.20092773 0.11791992 C100.79462158 0.07900635 101.38831543 0.04009277 102 0 C103.69875937 5.355817 104.54565962 10.48426374 105.11328125 16.06542969 C105.20789642 16.94611115 105.3025116 17.8267926 105.3999939 18.73416138 C105.7097642 21.62950045 106.01100671 24.52566344 106.3125 27.421875 C106.5283987 29.44825094 106.74496207 31.47455617 106.9621582 33.50079346 C107.53204476 38.82905277 108.09526797 44.15799202 108.65637207 49.48718262 C109.55307436 58.00155402 110.45603833 66.51524337 111.36630249 75.02817535 C111.68115332 77.98722719 111.99080348 80.94679097 112.30004883 83.90643311 C112.89689076 101.36007099 112.89689076 101.36007099 120 116 C124.6117115 117.39845881 129.2399569 118.27453889 134 119 C133.67 119.99 133.34 120.98 133 122 C121.94438708 122.09920291 111.01093413 122.12520495 100 121 C98.86217435 117.46009799 98.86217435 117.46009799 99.50473022 115.31507874 C100.2005645 112.06248548 99.81092294 108.98543048 99.48681641 105.70874023 C99.38703239 104.6178157 99.38703239 104.6178157 99.28523254 103.50485229 C99.06399595 101.10542717 98.83297471 98.70705718 98.6015625 96.30859375 C98.44509533 94.64002509 98.28912696 92.97140959 98.13363647 91.30274963 C97.80653161 87.80794558 97.47484269 84.31361736 97.13964844 80.81958008 C96.70996231 76.338873 96.28941593 71.85736792 95.87200356 67.37550259 C95.55057092 63.93090442 95.22545 60.48666265 94.89908981 57.04252815 C94.74272713 55.38997703 94.58724907 53.73734195 94.43266678 52.08462334 C94.21601263 49.77667915 93.99467685 47.46923244 93.77197266 45.16186523 C93.64682281 43.84822495 93.52167297 42.53458466 93.39273071 41.18113708 C93.1043567 37.98372537 93.1043567 37.98372537 92 35 C89.88246587 39.48116435 87.76529748 43.96250129 85.64840698 48.44396973 C84.88247665 50.06534599 84.11646502 51.68668385 83.35037231 53.3079834 C79.08599571 62.33305511 74.82712116 71.36060648 70.58984375 80.3984375 C69.8841339 81.90251557 69.17840503 83.40658472 68.47265625 84.91064453 C67.47144533 87.04450198 66.47086059 89.17863814 65.47265625 91.31390381 C60.80805122 101.29181574 55.9668186 111.16900658 51 121 C49.68 121 48.36 121 47 121 C40.47951393 108.71889139 34.09565446 96.37776548 27.87768555 83.94067383 C26.57059754 81.32868155 25.25711293 78.71997284 23.94335938 76.11132812 C17.30898221 62.88461909 11.08965084 49.48536964 5 36 C4.21190846 44.67560607 3.42918045 53.35167517 2.65309143 62.02836323 C2.29246788 66.05829104 1.93007406 70.08804252 1.56347656 74.11743164 C1.20904052 78.01390093 0.859461 81.91077949 0.51309204 85.80797386 C0.38083907 87.28668622 0.2469055 88.76524936 0.11117554 90.24364662 C-1.29676214 102.61689847 -1.29676214 102.61689847 -1 115 C1.3129482 117.3129482 2.47904875 117.49580975 5.625 118.125 C6.44226563 118.29257813 7.25953125 118.46015625 8.1015625 118.6328125 C8.72804688 118.75398438 9.35453125 118.87515625 10 119 C9.505 120.485 9.505 120.485 9 122 C-1.89 122 -12.78 122 -24 122 C-24.33 121.01 -24.66 120.02 -25 119 C-21.7 118.01 -18.4 117.02 -15 116 C-13.4916412 109.67209409 -12.46841724 103.46582032 -11.77905273 97.00146484 C-11.62009018 95.56795433 -11.62009018 95.56795433 -11.45791626 94.10548401 C-11.11184079 90.97445893 -10.77271687 87.84272252 -10.43359375 84.7109375 C-10.19269066 82.52091432 -9.95131452 80.33094313 -9.70948792 78.14102173 C-9.07594709 72.39361358 -8.44815161 66.64559295 -7.82177734 60.8973999 C-6.81738709 51.69086151 -5.80344487 42.48536826 -4.79100227 33.27971268 C-4.43893255 30.07207821 -4.0888204 26.86423515 -3.73912048 23.65634155 C-3.52328093 21.68414128 -3.30742584 19.7119427 -3.09155273 17.73974609 C-2.99543198 16.85332932 -2.89931122 15.96691254 -2.80027771 15.05363464 C-1.2898794 1.2898794 -1.2898794 1.2898794 0 0 Z " fill="#D7AB4F" transform="translate(337,97)"/>
<path d="M0 0 C3.21911882 1.07303961 3.64204863 1.4961371 5.53125 4.10546875 C6.00626953 4.75201416 6.48128906 5.39855957 6.97070312 6.06469727 C7.47537109 6.76522217 7.98003906 7.46574707 8.5 8.1875 C9.5820156 9.65982348 10.66537487 11.13116033 11.75 12.6015625 C12.29527344 13.3430957 12.84054688 14.08462891 13.40234375 14.84863281 C15.71482643 17.96256884 18.09622862 21.01874642 20.5 24.0625 C20.94666016 24.62864014 21.39332031 25.19478027 21.85351562 25.77807617 C25.72169943 30.66795302 29.62035727 35.53355944 33.52172852 40.39697266 C36.85499477 44.55562425 40.1549625 48.73873906 43.4375 52.9375 C47.95361179 58.71232123 52.56792873 64.40227122 57.20996094 70.07617188 C61.62874189 75.49548161 65.88008347 81.02662525 70.07421875 86.62109375 C71.77822748 89.06153164 71.77822748 89.06153164 74 90 C74.64324219 89.175 75.28648437 88.35 75.94921875 87.5 C81.08902173 80.92502592 86.28144698 74.39968671 91.5625 67.9375 C96.28853561 62.15147717 100.87668419 56.28512853 105.40625 50.34375 C108.36211478 46.50112579 111.43122082 42.75260985 114.5 39 C120.59946338 31.53661527 126.5005194 23.94538485 132.31738281 16.25927734 C133.21249288 15.07694015 134.10905128 13.895698 135.00708008 12.71557617 C136.23306493 11.10439316 137.4545799 9.4898117 138.67578125 7.875 C140.9791593 5.02577942 143.36522619 2.53684416 146 0 C148.18776133 28.90369292 148.18776133 28.90369292 142.36865234 36.61035156 C140.24324689 38.93515967 138.03657567 41.13819005 135.73193359 43.28515625 C132.65631791 46.33042332 130.19004306 49.83766086 127.625 53.3125 C126.53505844 54.74930058 125.44258592 56.18418452 124.34765625 57.6171875 C123.79867676 58.33745117 123.24969727 59.05771484 122.68408203 59.79980469 C118.08476046 65.8086603 113.41872042 71.76627276 108.76611328 77.73388672 C106.4238125 80.73931053 104.08456429 83.74710194 101.74560547 86.75512695 C100.5873014 88.24472218 99.42877485 89.73414444 98.27001953 91.22338867 C95.23794852 95.1203637 92.20875468 99.01953272 89.18359375 102.921875 C88.55646484 103.73011719 87.92933594 104.53835937 87.28320312 105.37109375 C86.08962574 106.90948238 84.89686155 108.44850243 83.70507812 109.98828125 C80.54474655 114.05959809 77.32506927 118.06192913 74 122 C69.73718836 120.57906279 68.0909312 117.39258734 65.5625 113.875 C64.48513819 112.40603514 63.40565649 110.93862304 62.32421875 109.47265625 C61.7729834 108.72516113 61.22174805 107.97766602 60.65380859 107.20751953 C58.13662834 103.84756325 55.5141158 100.57701899 52.875 97.3125 C48.40383122 91.76830825 44.02336708 86.16880616 39.6953125 80.51171875 C36.48746472 76.3225468 33.24247642 72.16238639 30 68 C18.97440661 53.8379298 18.97440661 53.8379298 15.59765625 49.27734375 C13.72206118 46.80866923 11.68468038 44.63587776 9.49609375 42.44140625 C0.94106448 33.38637795 -1.14012248 25.77257999 -0.8125 13.4375 C-0.64371698 8.94688197 -0.38607395 4.47708711 0 0 Z " fill="#E0CA7A" transform="translate(57,107)"/>
<path d="M0 0 C11.88 0 23.76 0 36 0 C36 0.99 36 1.98 36 3 C33.69 3.66 31.38 4.32 29 5 C31.32885087 19.253856 35.55487706 33.02159588 39.56469727 46.87286377 C40.31884759 49.48355474 41.06693861 52.09596511 41.81488228 54.70843983 C42.71001401 57.8336932 43.60886058 60.95787492 44.5078125 64.08203125 C44.84322052 65.2495845 45.17862854 66.41713776 45.52420044 67.62007141 C45.83477386 68.69266708 46.14534729 69.76526276 46.46533203 70.87036133 C46.73830109 71.81551102 47.01127014 72.76066071 47.29251099 73.73445129 C47.93418341 76.00192319 47.93418341 76.00192319 49 78 C49.20107864 77.48588562 49.40215729 76.97177124 49.60932922 76.44207764 C54.24038385 64.60174477 58.87298515 52.76201867 63.50772095 40.92312622 C65.59369345 35.59438269 67.67838818 30.2651459 69.76029968 24.93481445 C70.54030004 22.93837854 71.32109929 20.94225754 72.10229492 18.94628906 C73.01145478 16.62328637 73.91924382 14.29974656 74.82543945 11.97558594 C75.22335693 10.96012695 75.62127441 9.94466797 76.03125 8.8984375 C76.53495117 7.60945557 76.53495117 7.60945557 77.04882812 6.29443359 C77.94220279 4.13941944 78.92780686 2.07095657 80 0 C81.84770203 0.17454529 81.84770203 0.17454529 84 1 C85.30818176 3.24159241 85.30818176 3.24159241 86.43676758 6.20727539 C86.85914703 7.29920197 87.28152649 8.39112854 87.71670532 9.5161438 C88.14019257 10.66581635 88.56367981 11.81548889 89 13 C89.40681 14.08433319 89.81362 15.16866638 90.23275757 16.28585815 C91.51439066 19.7441671 92.76637422 23.21205994 94.01171875 26.68359375 C94.47032397 27.95494102 94.92921765 29.22618426 95.38838196 30.49732971 C96.58197844 33.80368455 97.77222237 37.11123523 98.96154785 40.41912842 C100.87391975 45.73611397 102.79165467 51.05116792 104.70911598 56.36631966 C105.37369237 58.20995656 106.0367984 60.05412328 106.69987488 61.89830017 C107.30609428 63.58144066 107.30609428 63.58144066 107.92456055 65.29858398 C108.27810104 66.28165024 108.63164154 67.26471649 108.99589539 68.27757263 C109.66469781 70.09089566 110.37631261 71.88900088 111.12971497 73.6688385 C112 76 112 76 112 79 C112.66 79 113.32 79 114 79 C114.39070679 77.1125708 114.39070679 77.1125708 114.78930664 75.18701172 C116.0126525 69.69257128 117.66502993 64.3686767 119.37109375 59.0078125 C119.69408951 57.98122528 120.01708527 56.95463806 120.34986877 55.89694214 C121.37552399 52.63849429 122.4061255 49.38164164 123.4375 46.125 C124.46471951 42.87532134 125.49079079 39.62529279 126.51441956 36.3744812 C127.14886561 34.36020988 127.78538969 32.34659138 128.42442322 30.33377075 C132.57412752 17.3632785 132.57412752 17.3632785 135 4 C132.36 3.67 129.72 3.34 127 3 C127 2.01 127 1.02 127 0 C136.9 0 146.8 0 157 0 C157 0.99 157 1.98 157 3 C155.824375 3.04125 154.64875 3.0825 153.4375 3.125 C150.07905539 3.97015365 149.15159749 4.76916737 147.22120667 7.70851135 C143.03883399 16.36755183 139.66093867 25.12248462 136.71484375 34.27734375 C136.24705468 35.70149078 135.77816215 37.12527578 135.3082428 38.54872131 C134.08657991 42.25688926 132.87685702 45.96882636 131.67071533 49.68206787 C129.74099112 55.61806212 127.79517907 61.54876733 125.84469795 67.47796822 C125.17652051 69.51609783 124.51504043 71.55630085 123.85447693 73.59690857 C115.82038849 98.24935622 115.82038849 98.24935622 111 104 C109.1940918 103.46118164 109.1940918 103.46118164 107 102 C105.77553679 99.52595933 104.81294151 97.20829257 103.89453125 94.62109375 C103.60334915 93.83778183 103.31216705 93.05446991 103.01216125 92.24742126 C102.35791238 90.4816333 101.71041745 88.71333342 101.06842041 86.9430542 C99.92477685 83.7927915 98.76166731 80.65018672 97.59521484 77.50830078 C94.48309837 69.11490429 91.39272957 60.7135386 88.3112793 52.30883789 C86.98570268 48.69550009 85.65531682 45.08396299 84.32421875 41.47265625 C83.91902512 40.363423 83.51383148 39.25418976 83.09635925 38.11134338 C82.52985405 36.57715004 82.52985405 36.57715004 81.9519043 35.01196289 C81.45728951 33.66443687 81.45728951 33.66443687 80.9526825 32.28968811 C79.99842831 29.78909402 79.99842831 29.78909402 78 27 C77.74214722 27.67190872 77.48429443 28.34381744 77.21862793 29.03608704 C74.75186141 35.46230106 72.28208311 41.88735072 69.80916595 48.31120014 C68.53883843 51.61140265 67.26955906 54.91199922 66.00292969 58.21362305 C62.69987175 66.82147299 59.36516273 75.41619144 56 84 C55.59765137 85.03445251 55.19530273 86.06890503 54.78076172 87.13470459 C53.71446506 89.86125883 52.62755567 92.57836895 51.53125 95.29296875 C51.22747437 96.07666336 50.92369873 96.86035797 50.61071777 97.6678009 C49.73632812 99.78979492 49.73632812 99.78979492 48 103 C45.89147949 103.70063782 45.89147949 103.70063782 44 104 C41.27567458 100.78703898 40.08712498 97.76791174 38.84277344 93.76049805 C38.64875443 93.14336945 38.45473541 92.52624084 38.25483704 91.89041138 C37.6153951 89.84980514 36.98735364 87.80587898 36.359375 85.76171875 C35.91028017 84.32016871 35.46049937 82.87883222 35.0100708 81.43769836 C33.82201786 77.62975255 32.64367234 73.81886859 31.46722412 70.00732422 C30.29541984 66.21718405 29.11397018 62.43005537 27.93359375 58.64257812 C24.53327502 47.7198797 21.13679845 36.79611828 17.83789062 25.84228516 C17.51540344 24.77267044 17.19291626 23.70305573 16.86065674 22.60102844 C16.27604869 20.65626996 15.69469704 18.71052811 15.11737061 16.76359558 C14.86368713 15.91839859 14.61000366 15.0732016 14.34863281 14.20239258 C14.13426575 13.48054276 13.91989868 12.75869293 13.69903564 12.01496887 C12.28626754 7.85887471 12.28626754 7.85887471 9.3125 4.8125 C6.2490347 3.73614733 3.21714425 3.37120895 0 3 C0 2.01 0 1.02 0 0 Z " fill="#D7AB4F" transform="translate(983,117)"/>
<path d="M0 0 C1.94543701 -0.00193359 1.94543701 -0.00193359 3.93017578 -0.00390625 C16.87576816 0.08732247 29.25143953 2.08312396 42 4.375 C41.67 13.285 41.34 22.195 41 31.375 C39.68 31.375 38.36 31.375 37 31.375 C36.89042969 30.78332031 36.78085938 30.19164063 36.66796875 29.58203125 C35.39486547 23.23721573 34.17032748 18.68204349 28.6875 14.8125 C14.60319196 6.65029589 -4.37275981 5.25831203 -20 9.375 C-32.7868794 13.94626193 -41.0679393 21.18048534 -47 33.375 C-53.3706767 49.59126795 -51.5040086 67.22391147 -45.41796875 83.1796875 C-43.42457723 87.67168272 -41.00820842 91.50397211 -38 95.375 C-37.57332031 95.97570312 -37.14664062 96.57640625 -36.70703125 97.1953125 C-29.06800967 107.18652548 -16.30187037 113.536592 -4 115.375 C-0.72836595 115.56582354 2.5358718 115.60571153 5.8125 115.625 C6.67681641 115.645625 7.54113281 115.66625 8.43164062 115.6875 C14.31112631 115.72299878 18.67378944 114.92776385 24 112.375 C26.45487484 108.69268775 26.2892018 105.89541033 26.265625 101.63671875 C26.26753845 100.87833206 26.2694519 100.11994537 26.27142334 99.33857727 C26.27278379 97.73393421 26.26909708 96.12928009 26.26074219 94.5246582 C26.25008481 92.08193853 26.26061883 89.63996175 26.2734375 87.19726562 C26.27211501 85.63541506 26.26955077 84.07356495 26.265625 82.51171875 C26.26967346 81.78651535 26.27372192 81.06131195 26.27789307 80.31413269 C26.23821594 75.96780813 25.69710381 72.38602494 24 68.375 C20.81057226 65.89433398 16.92474302 65.82785496 13 65.375 C13 64.385 13 63.395 13 62.375 C25.87 62.375 38.74 62.375 52 62.375 C52 63.365 52 64.355 52 65.375 C49.98177083 65.73307292 47.96354167 66.09114583 45.9453125 66.44921875 C43.8401478 67.2232677 43.8401478 67.2232677 42.89331055 69.32324219 C41.63666265 73.61624538 41.74132793 77.67881443 41.76171875 82.12890625 C41.74630773 84.05404358 41.73000474 85.97917393 41.71289062 87.90429688 C41.69640011 90.9284608 41.68753405 93.95211289 41.69458008 96.97631836 C41.69719446 99.90276763 41.66913207 102.82766416 41.63671875 105.75390625 C41.64692551 106.65814835 41.65713226 107.56239044 41.66764832 108.49403381 C41.56982607 114.75790725 41.56982607 114.75790725 38.66894531 117.89941406 C35.51858356 119.64116181 32.54156624 120.63701549 29.0625 121.5625 C27.87785156 121.88605469 26.69320313 122.20960938 25.47265625 122.54296875 C3.26609917 127.86354992 -20.2138297 124.64948178 -40.125 113.6875 C-53.9532122 104.8897432 -61.4056734 91.82823256 -65.4309082 76.25512695 C-66.37547058 71.47477418 -66.44653659 66.79667382 -66.375 61.9375 C-66.36412354 60.9276001 -66.35324707 59.9177002 -66.34204102 58.87719727 C-65.99757999 42.76811995 -60.7322222 28.2415144 -49.37109375 16.5546875 C-35.25868568 3.58150182 -18.66370925 -0.01933813 0 0 Z " fill="#D7AB4F" transform="translate(1265,96.625)"/>
<path d="M0 0 C0.97050293 0.00563965 1.94100586 0.0112793 2.94091797 0.01708984 C17.73417349 0.26740293 31.27317349 4.65260073 42.15625 15.0625 C52.76534881 26.81411714 56.14287265 40.16759038 55.5703125 55.6484375 C54.61131865 70.40729254 47.98549425 83.27913056 37.1875 93.3125 C22.3559932 104.56398791 5.55830653 108.12483379 -12.75 105.625 C-27.18785235 102.91673533 -38.20747185 95.67407243 -47.05859375 84.015625 C-54.97860981 71.80927509 -57.40345283 57.56487546 -55.3828125 43.2734375 C-52.20458124 28.40245418 -43.93548514 16.20261418 -31.35546875 7.84765625 C-21.36638753 1.81738141 -11.57922264 -0.07046997 0 0 Z M-31.0625 18.5 C-40.84194463 30.73111598 -40.77843419 45.42955872 -39.8125 60.3125 C-38.21390114 72.78266977 -31.8769201 83.58797502 -22.28125 91.58984375 C-12.48660021 98.42440159 -2.55732064 100.20985708 9.1875 99.3125 C19.59863245 97.41021901 26.5150771 92.1703156 33.03515625 83.99609375 C41.55494835 71.28967163 41.73683678 54.64400291 39.0625 40.0625 C36.30310178 28.59739473 30.43690762 18.42311857 20.375 12.0625 C3.28004372 2.57657471 -17.24328244 3.79945479 -31.0625 18.5 Z " fill="#D7AB4F" transform="translate(524.8125,114.6875)"/>
<path d="M0 0 C10.7683424 7.67773054 17.20066917 18.86627315 19.5859375 31.84375 C21.1165268 48.1994929 18.47442281 63.07973496 8.58203125 76.578125 C-2.53276096 89.70113548 -17.04565068 95.52278311 -33.8359375 97.06640625 C-48.82685333 97.64491475 -63.22744711 93.32242369 -74.7265625 83.65625 C-85.51232208 73.28599319 -91.21352538 59.42783242 -91.7265625 44.46875 C-91.5291411 28.15680698 -84.78799438 15.12414626 -73.4140625 3.84375 C-54.26034717 -14.2889033 -21.43182705 -13.5600836 0 0 Z M-67.16015625 9.875 C-76.29538191 22.45017348 -77.42114194 37.93302566 -75.08447266 52.96386719 C-72.65191364 64.32371037 -66.49816847 75.57241189 -57.09375 82.5703125 C-46.60617426 89.24422433 -35.98064578 91.46291783 -23.64453125 89.375 C-14.14114355 86.92251285 -7.07631925 80.71039679 -1.4140625 72.84375 C0.24896419 69.93215811 1.49192674 67.01033391 2.5859375 63.84375 C2.81152344 63.204375 3.03710938 62.565 3.26953125 61.90625 C7.21655549 47.96917129 5.35577643 30.75713882 -1.1640625 18.03125 C-7.28875038 7.72859655 -14.3079006 1.56756965 -25.80859375 -2.296875 C-41.17486056 -5.95947381 -56.75323486 -2.23148573 -67.16015625 9.875 Z " fill="#D7AB4F" transform="translate(1530.4140625,124.15625)"/>
<path d="M0 0 C5.2923672 5.98873131 6.98802342 11.72045999 7 19.625 C5.932657 31.19111687 -1.06466567 39.68966567 -9 47.625 C-2.28412954 56.2893822 4.53975218 64.83005332 11.7109375 73.12304688 C12.94753932 74.56387536 14.16182025 76.02377044 15.375 77.484375 C22.52823198 85.87948753 29.16522036 89.73321308 40 91.625 C40 92.615 40 93.605 40 94.625 C36.85434954 94.71345016 33.70902625 94.76586835 30.5625 94.8125 C29.68400391 94.83763672 28.80550781 94.86277344 27.90039062 94.88867188 C18.28393015 94.99512716 11.37071639 92.82832009 4.3671875 86.1640625 C1.68007119 83.28184204 -0.81494945 80.28206155 -3.25 77.1875 C-3.71196777 76.60484375 -4.17393555 76.0221875 -4.64990234 75.421875 C-7.27718106 72.04458681 -9.66405622 68.61216047 -11.921875 64.9765625 C-16.80659812 56.85459286 -16.80659812 56.85459286 -24.43212891 51.78320312 C-30.00114494 50.81540097 -35.39920729 51.05131796 -41 51.625 C-40.90581185 55.76966145 -40.79958101 59.9137947 -40.68261719 64.05786133 C-40.64454707 65.46500398 -40.60965755 66.87223669 -40.578125 68.27954102 C-40.5319922 70.31298823 -40.47408432 72.34582707 -40.4140625 74.37890625 C-40.36693115 76.20917358 -40.36693115 76.20917358 -40.31884766 78.07641602 C-39.98012307 81.84621836 -39.30818655 85.07274481 -38 88.625 C-35.16666667 90.125 -35.16666667 90.125 -32 90.625 C-30.824375 90.934375 -30.824375 90.934375 -29.625 91.25 C-28.820625 91.435625 -28.820625 91.435625 -28 91.625 C-28 92.615 -28 93.605 -28 94.625 C-39.55 94.625 -51.1 94.625 -63 94.625 C-63.33 93.635 -63.66 92.645 -64 91.625 C-60.535 90.635 -60.535 90.635 -57 89.625 C-55.45002868 84.13500692 -54.71200306 79.15597334 -54.75708008 73.43652344 C-54.75423256 72.27398041 -54.75423256 72.27398041 -54.75132751 71.08795166 C-54.74765459 68.55331968 -54.75827123 66.01898103 -54.76953125 63.484375 C-54.77072482 61.71177199 -54.77117584 59.93916834 -54.7709198 58.16656494 C-54.77247848 54.46484375 -54.78072326 50.76322011 -54.79418945 47.06152344 C-54.81122813 42.31803662 -54.81500199 37.57465627 -54.81424427 32.83114243 C-54.81451612 29.17660507 -54.8199989 25.52209096 -54.82724571 21.86756134 C-54.83042523 20.11806667 -54.83239811 18.36856937 -54.83313942 16.61907196 C-54.83530776 14.17796838 -54.84406129 11.73697773 -54.85473633 9.29589844 C-54.85428314 8.57478882 -54.85382996 7.8536792 -54.85336304 7.11071777 C-54.87515804 3.70184477 -55.16472524 0.96609905 -56 -2.375 C-59.3 -3.035 -62.6 -3.695 -66 -4.375 C-66 -5.365 -66 -6.355 -66 -7.375 C-61.14797966 -7.54534798 -56.29575665 -7.70554754 -51.44311523 -7.85717773 C-49.79947351 -7.9098678 -48.15591146 -7.9651188 -46.51245117 -8.02319336 C-9.88680083 -9.31007078 -9.88680083 -9.31007078 0 0 Z M-41 -0.375 C-41 14.145 -41 28.665 -41 43.625 C-32.84353386 46.88758645 -24.30509116 47.83047378 -16 44.625 C-11.18319484 41.01239613 -8.58140183 36.35863872 -7 30.625 C-5.93735057 22.14527219 -6.81671503 14.1623389 -11 6.625 C-15.11760283 1.4086586 -20.5854273 -1.05890664 -27 -2.375 C-32.24409439 -2.97787947 -35.87587367 -2.08304211 -41 -0.375 Z " fill="#D7AB4F" transform="translate(1403,124.375)"/>
<path d="M0 0 C11.55 0 23.1 0 35 0 C35 0.99 35 1.98 35 3 C33.865625 3.28875 32.73125 3.5775 31.5625 3.875 C30.386875 4.24625 29.21125 4.6175 28 5 C26.63788843 7.72422314 26.85775774 9.89356673 26.83886719 12.94335938 C26.82925964 14.19225952 26.8196521 15.44115967 26.80975342 16.72790527 C26.80490247 18.09985166 26.80062437 19.47180017 26.796875 20.84375 C26.79111993 22.25183107 26.78536224 23.65991212 26.77960205 25.06799316 C26.76908503 28.02710332 26.76324852 30.98618628 26.75976562 33.9453125 C26.75431188 37.71324182 26.73035476 41.48080408 26.70179367 45.24861908 C26.68303516 48.16224155 26.6779545 51.07577846 26.67642975 53.98945618 C26.67342694 55.37675459 26.66547983 56.76405237 26.65224457 58.15129089 C26.55560443 69.06959501 27.28441557 80.50193885 35 89 C43.52530461 95.35245911 50.50546872 96.70139995 61 96 C68.07297574 94.79726309 73.33530141 91.41570449 78 86 C86.2142409 73.52020374 84.28332002 55.92345317 84.20581055 41.72412109 C84.18747044 38.24439195 84.18530199 34.7649289 84.18554688 31.28515625 C84.1806331 29.04947689 84.17480539 26.81379931 84.16796875 24.578125 C84.16685593 23.54979553 84.1657431 22.52146606 84.16459656 21.4619751 C84.1261417 15.56451093 83.75824985 9.84968013 83 4 C78.05 3.505 78.05 3.505 73 3 C73 2.01 73 1.02 73 0 C83.56 0 94.12 0 105 0 C105 0.99 105 1.98 105 3 C103.865625 3.309375 102.73125 3.61875 101.5625 3.9375 C98.21224901 4.62924531 98.21224901 4.62924531 97 6 C96.88769648 7.53604988 96.84324837 9.07712971 96.82641602 10.6171875 C96.81292618 11.60332031 96.79943634 12.58945313 96.78553772 13.60546875 C96.77509933 14.68441406 96.76466095 15.76335937 96.75390625 16.875 C96.72090603 19.16406543 96.68769565 21.45312785 96.65429688 23.7421875 C96.60733078 27.34665312 96.56304043 30.95111254 96.52319336 34.55566406 C95.98749858 80.73447861 95.98749858 80.73447861 84.01953125 93.25 C72.99885376 102.79983272 59.84951376 104.58053284 45.71484375 103.82421875 C35.41156943 102.4803134 25.88655185 98.37883522 19.39453125 90.0703125 C12.80884481 80.29324299 11.70545368 70.86922321 11.62109375 59.28515625 C11.60409927 58.07484238 11.5871048 56.8645285 11.56959534 55.61753845 C11.51669686 51.76591145 11.47629504 47.91429277 11.4375 44.0625 C11.39338458 40.21433332 11.34650566 36.36624413 11.29469299 32.51817322 C11.26306848 30.12969322 11.23607958 27.74114585 11.21446228 25.35255432 C11.76639288 14.80969159 11.76639288 14.80969159 8.6884613 5.30018616 C6.04986562 3.2683566 3.24145054 3.30579722 0 3 C0 2.01 0 1.02 0 0 Z " fill="#D7AB4F" transform="translate(1564,117)"/>
<path d="M0 0 C0.99 0 1.98 0 3 0 C9.81856262 14.74836693 15.98121312 29.69783194 21.9375 44.8125 C26.93863886 57.49350847 31.97654197 70.15622722 37.31640625 82.69921875 C37.71254623 83.64867874 38.10868622 84.59813873 38.51683044 85.57637024 C42.31032461 94.43736784 42.31032461 94.43736784 49.67578125 100.2421875 C50.54589844 100.45101562 51.41601562 100.65984375 52.3125 100.875 C53.19550781 101.09929687 54.07851563 101.32359375 54.98828125 101.5546875 C55.65214844 101.70164062 56.31601562 101.84859375 57 102 C57 102.99 57 103.98 57 105 C52.56251365 105.02896822 48.12505153 105.04678788 43.6875 105.0625 C42.42486328 105.07087891 41.16222656 105.07925781 39.86132812 105.08789062 C38.65283203 105.09111328 37.44433594 105.09433594 36.19921875 105.09765625 C34.52605591 105.10551147 34.52605591 105.10551147 32.8190918 105.11352539 C30 105 30 105 27 104 C27.21712646 103.1529248 27.43425293 102.30584961 27.65795898 101.43310547 C28.07849085 97.21217818 27.13931787 94.95346225 25.47265625 91.0703125 C24.98289307 89.90773926 24.49312988 88.74516602 23.98852539 87.54736328 C23.03514282 85.35829346 23.03514282 85.35829346 22.0625 83.125 C20.061875 78.46375 18.06125 73.8025 16 69 C5.11 69 -5.78 69 -17 69 C-18.485 73.00125 -19.97 77.0025 -21.5 81.125 C-21.96986328 82.37555176 -22.43972656 83.62610352 -22.92382812 84.91455078 C-23.28927734 85.91470215 -23.65472656 86.91485352 -24.03125 87.9453125 C-24.40830078 88.96125488 -24.78535156 89.97719727 -25.17382812 91.02392578 C-26.04185471 94.15077097 -26.15154142 96.77132575 -26 100 C-24.02 100.66 -22.04 101.32 -20 102 C-20 102.99 -20 103.98 -20 105 C-30.56 105 -41.12 105 -52 105 C-52 104.01 -52 103.02 -52 102 C-51.11248047 101.88785156 -51.11248047 101.88785156 -50.20703125 101.7734375 C-46.11121077 101.09191435 -43.54324704 100.45481147 -40.3125 97.75 C-32.65808264 86.85779301 -28.7987036 71.91429718 -24.05343628 59.59576416 C-22.37378246 55.23633902 -20.6877055 50.87940757 -19.00202942 46.52230835 C-17.76087097 43.31392164 -16.52050617 40.10522902 -15.28027344 36.89648438 C-12.34387193 29.301595 -9.39995988 21.70976331 -6.4375 14.125 C-6.00348877 13.00528809 -5.56947754 11.88557617 -5.12231445 10.73193359 C-4.73003662 9.72984863 -4.33775879 8.72776367 -3.93359375 7.6953125 C-3.60415771 6.84984863 -3.27472168 6.00438477 -2.93530273 5.13330078 C-2 3 -2 3 0 0 Z M-2 24 C-3.71500513 28.78506196 -5.4238318 33.57226765 -7.12695312 38.36157227 C-7.70728688 39.99075866 -8.28930881 41.61934472 -8.87304688 43.24731445 C-9.71147369 45.58649676 -10.54381937 47.92776593 -11.375 50.26953125 C-11.76872803 51.36186821 -11.76872803 51.36186821 -12.17041016 52.47627258 C-13.21999152 55.44909653 -14 57.82225618 -14 61 C-5.09 61 3.82 61 13 61 C12.11989966 56.59949829 10.86630547 52.67458515 9.27734375 48.51171875 C9.01240616 47.80852005 8.74746857 47.10532135 8.47450256 46.3808136 C7.6324451 44.14832553 6.78505857 41.91790462 5.9375 39.6875 C5.3635786 38.1687534 4.79000706 36.64987455 4.21679688 35.13085938 C2.81524415 31.41902933 1.40891047 27.70904315 0 24 C-0.66 24 -1.32 24 -2 24 Z " fill="#D7AB4F" transform="translate(934,114)"/>
<path d="M0 0 C3.41326316 1.60232662 4.11604853 4.74910475 5.39892578 8.0871582 C5.84999695 9.20488113 5.84999695 9.20488113 6.31018066 10.34518433 C7.3096045 12.83060029 8.28741147 15.32398673 9.26611328 17.81762695 C9.96285265 19.5582848 10.66128755 21.29826483 11.36132812 23.03759766 C12.85084378 26.74312213 14.33269306 30.45157996 15.80908203 34.16235352 C19.35641858 43.06625809 22.97173656 51.94244899 26.59417725 60.81600952 C27.74272396 63.63521585 28.88403263 66.45726783 30.02441406 69.27978516 C36.22552978 88.10298348 36.22552978 88.10298348 49.59814453 101.05200195 C50.37544922 101.2840332 51.15275391 101.51606445 51.95361328 101.75512695 C53.13890625 102.11864258 53.13890625 102.11864258 54.34814453 102.48950195 C54.93982422 102.6596582 55.53150391 102.82981445 56.14111328 103.00512695 C55.81111328 103.66512695 55.48111328 104.32512695 55.14111328 105.00512695 C50.70362693 105.03409518 46.26616481 105.05191483 41.82861328 105.06762695 C40.56597656 105.07600586 39.30333984 105.08438477 38.00244141 105.09301758 C36.79394531 105.09624023 35.58544922 105.09946289 34.34033203 105.1027832 C32.66716919 105.11063843 32.66716919 105.11063843 30.96020508 105.11865234 C28.14111328 105.00512695 28.14111328 105.00512695 25.14111328 104.00512695 C25.35823975 103.15805176 25.57536621 102.31097656 25.79907227 101.43823242 C26.21960413 97.21730514 25.28043115 94.9585892 23.61376953 91.07543945 C23.12400635 89.91286621 22.63424316 88.75029297 22.12963867 87.55249023 C21.1762561 85.36342041 21.1762561 85.36342041 20.20361328 83.13012695 C18.20298828 78.46887695 16.20236328 73.80762695 14.14111328 69.00512695 C3.25111328 69.00512695 -7.63888672 69.00512695 -18.85888672 69.00512695 C-20.34388672 73.00637695 -21.82888672 77.00762695 -23.35888672 81.13012695 C-23.82875 82.38067871 -24.29861328 83.63123047 -24.78271484 84.91967773 C-25.14816406 85.9198291 -25.51361328 86.91998047 -25.89013672 87.95043945 C-26.2671875 88.96638184 -26.64423828 89.98232422 -27.03271484 91.02905273 C-27.90074143 94.15589792 -28.01042814 96.7764527 -27.85888672 100.00512695 C-25.87888672 100.66512695 -23.89888672 101.32512695 -21.85888672 102.00512695 C-21.85888672 102.99512695 -21.85888672 103.98512695 -21.85888672 105.00512695 C-32.41888672 105.00512695 -42.97888672 105.00512695 -53.85888672 105.00512695 C-53.85888672 104.01512695 -53.85888672 103.02512695 -53.85888672 102.00512695 C-53.24400391 101.87235352 -52.62912109 101.73958008 -51.99560547 101.6027832 C-50.78324219 101.33788086 -50.78324219 101.33788086 -49.54638672 101.06762695 C-48.345625 100.8065918 -48.345625 100.8065918 -47.12060547 100.5402832 C-44.71348572 100.00626536 -44.71348572 100.00626536 -41.85888672 99.00512695 C-40.75405289 96.74198329 -40.75405289 96.74198329 -39.85888672 94.00512695 C-39.00978372 92.05613693 -38.15790679 90.10835446 -37.30419922 88.16137695 C-33.25076653 78.78895803 -29.63536261 69.2432516 -25.96917725 59.71459961 C-23.87654667 54.27762711 -21.77423075 48.84440589 -19.67138672 43.41137695 C-19.25799042 42.34314697 -18.84459412 41.27491699 -18.41867065 40.17431641 C-14.9030484 31.09946519 -11.34335948 22.04303297 -7.73388672 13.00512695 C-7.48427185 12.37743408 -7.23465698 11.74974121 -6.97747803 11.10302734 C-6.29241629 9.38173439 -5.603137 7.6621217 -4.91357422 5.94262695 C-4.53700684 5.00290039 -4.16043945 4.06317383 -3.77246094 3.0949707 C-2.42241663 0.00668121 -2.42241663 0.00668121 0 0 Z M-3.85888672 24.00512695 C-5.57389185 28.79018892 -7.28271852 33.57739461 -8.98583984 38.36669922 C-9.5661736 39.99588561 -10.14819553 41.62447168 -10.73193359 43.25244141 C-11.57036041 45.59162371 -12.40270609 47.93289289 -13.23388672 50.2746582 C-13.62761475 51.36699516 -13.62761475 51.36699516 -14.02929688 52.48139954 C-15.07887824 55.45422348 -15.85888672 57.82738313 -15.85888672 61.00512695 C-6.94888672 61.00512695 1.96111328 61.00512695 11.14111328 61.00512695 C10.26101294 56.60462524 9.00741875 52.6797121 7.41845703 48.5168457 C7.15351944 47.813647 6.88858185 47.1104483 6.61561584 46.38594055 C5.77355838 44.15345249 4.92617185 41.92303157 4.07861328 39.69262695 C3.50469188 38.17388036 2.93112034 36.6550015 2.35791016 35.13598633 C0.95635743 31.42415628 -0.44997625 27.7141701 -1.85888672 24.00512695 C-2.51888672 24.00512695 -3.17888672 24.00512695 -3.85888672 24.00512695 Z " fill="#D7AB4F" transform="translate(709.85888671875,113.994873046875)"/>
<path d="M0 0 C12.54 0 25.08 0 38 0 C38 0.99 38 1.98 38 3 C35.69 3.33 33.38 3.66 31 4 C31.63600138 9.23637674 33.27294473 13.711367 35.2109375 18.5703125 C35.5352626 19.39711517 35.85958771 20.22391785 36.19374084 21.07577515 C37.24859545 23.76107908 38.3116413 26.44305361 39.375 29.125 C40.10215498 30.97050183 40.82879606 32.81620622 41.55493164 34.66210938 C43.01021154 38.35951407 44.46855556 42.05568771 45.92919922 45.75097656 C47.78990413 50.46181479 49.63491505 55.17860151 51.47265625 59.8984375 C51.98446054 61.21080486 52.49633913 62.52314324 53.00830078 63.83544922 C53.94414808 66.23501668 54.87876579 68.63506414 55.81201172 71.03564453 C56.22338379 72.08606934 56.63475586 73.13649414 57.05859375 74.21875 C57.41236084 75.12560547 57.76612793 76.03246094 58.13061523 76.96679688 C58.83206715 78.95611975 58.83206715 78.95611975 60 80 C67.81418345 61.64848387 75.44821945 43.24616249 82.4375 24.5625 C82.72184906 23.81052338 83.00619812 23.05854675 83.29916382 22.28378296 C84.10318851 20.15211795 84.89543494 18.01648074 85.68359375 15.87890625 C86.13275146 14.6679126 86.58190918 13.45691895 87.04467773 12.20922852 C87.92442987 9.25386388 88.21350699 7.05282592 88 4 C85.69 3.34 83.38 2.68 81 2 C81 1.34 81 0.68 81 0 C91.23 0 101.46 0 112 0 C112 0.99 112 1.98 112 3 C110.046875 3.35807292 108.09375 3.71614583 106.140625 4.07421875 C100.12907033 6.67410645 97.91692639 14.07855069 95.4375 19.6875 C95.00332764 20.6559082 94.56915527 21.62431641 94.12182617 22.62207031 C90.45677775 30.84825739 86.95496419 39.14179727 83.47192383 47.44628906 C79.45842239 56.98895833 75.30874762 66.46845784 71.125 75.9375 C70.80616852 76.65965698 70.48733704 77.38181396 70.15884399 78.12585449 C68.65527172 81.52981351 67.14644171 84.93118877 65.62597656 88.32763672 C64.57663046 90.67741973 63.57161694 93.03252438 62.58496094 95.41064453 C62.1624707 96.4107959 61.73998047 97.41094727 61.3046875 98.44140625 C60.77464111 99.73800171 60.77464111 99.73800171 60.23388672 101.06079102 C59 103 59 103 56.85595703 103.78491211 C56.24349121 103.85589111 55.63102539 103.92687012 55 104 C51.63963533 100.16600502 50.0360225 95.65290717 48.1484375 90.98828125 C47.77680481 90.08330399 47.40517212 89.17832672 47.02227783 88.2459259 C46.220102 86.29057822 45.42055496 84.33415045 44.62335205 82.37677002 C43.36570755 79.28969028 42.10064695 76.20574736 40.83349609 73.12255859 C37.79730544 65.73136488 34.77166272 58.33587044 31.74926758 50.93902588 C29.41175949 45.2184726 27.06881638 39.5002207 24.71710205 33.78549194 C23.64598281 31.17611664 22.58339108 28.56337628 21.52099609 25.95043945 C20.8608055 24.34437713 20.20018458 22.73849161 19.5390625 21.1328125 C19.2533136 20.42324905 18.9675647 19.71368561 18.67315674 18.98262024 C15.16514477 9.92448375 15.16514477 9.92448375 8.32421875 3.78125 C7.45410156 3.6884375 6.58398438 3.595625 5.6875 3.5 C4.80449219 3.3865625 3.92148437 3.273125 3.01171875 3.15625 C2.34785156 3.1046875 1.68398438 3.053125 1 3 C0.67 2.01 0.34 1.02 0 0 Z " fill="#D7AB4F" transform="translate(573,117)"/>
<path d="M0 0 C7.06164086 -0.10207342 14.12308892 -0.17174631 21.18530273 -0.21972656 C23.58381256 -0.23974509 25.98227418 -0.26696833 28.38061523 -0.30175781 C31.84370882 -0.35070613 35.3061528 -0.37306731 38.76953125 -0.390625 C39.82831985 -0.41127014 40.88710846 -0.43191528 41.97798157 -0.45318604 C51.36319471 -0.45596532 60.58942258 1.55797382 67.5625 8.24609375 C72.0194993 13.68411736 73.65131438 19.48878153 73.31640625 26.45703125 C72.1878324 35.52742111 69.01772833 42.76088469 61.9609375 48.72265625 C52.17208027 55.76164016 42.81493646 56.45965891 31 56 C31.33 54.68 31.66 53.36 32 52 C32.845625 51.91363281 33.69125 51.82726562 34.5625 51.73828125 C43.33984602 50.65108725 49.2343965 48.96379316 55.375 42.5 C59.11647363 36.74388673 59.76854227 31.77893697 59 25 C57.1870333 17.2891543 53.54380794 12.40103161 47 8 C41.49830781 5.12411545 35.07473838 5.62306818 29 6 C28.01 6.33 27.02 6.66 26 7 C25.9766227 15.702876 25.95895756 24.40574085 25.94818783 33.10864162 C25.9430137 37.15162214 25.9360181 41.19458085 25.92456055 45.23754883 C25.91353389 49.15387747 25.90768223 53.07018541 25.90512276 56.9865284 C25.90330353 58.46571236 25.89975328 59.94489544 25.89426994 61.42407036 C25.86596387 69.39144873 25.98185525 77.33864142 26.38110352 85.29711914 C26.41157996 86.00977904 26.44205641 86.72243895 26.47345638 87.4566946 C26.67879091 91.04018885 26.89230299 94.01887794 29 97 C31.40404738 97.91599427 31.40404738 97.91599427 34.125 98.25 C35.03507812 98.39953125 35.94515625 98.5490625 36.8828125 98.703125 C37.58148437 98.80109375 38.28015625 98.8990625 39 99 C39 99.99 39 100.98 39 102 C27.12 102 15.24 102 3 102 C2.67 101.01 2.34 100.02 2 99 C3.11375 98.814375 4.2275 98.62875 5.375 98.4375 C6.57125 97.963125 7.7675 97.48875 9 97 C11.00018764 91.92647866 11.28434099 87.15708996 11.24291992 81.72558594 C11.24481827 80.92958984 11.24671661 80.13359375 11.24867249 79.31347656 C11.25235305 76.70367326 11.24171776 74.09415321 11.23046875 71.484375 C11.22927563 69.66310661 11.22882407 67.84183761 11.2290802 66.02056885 C11.22752021 62.21451941 11.21926525 58.40856469 11.20581055 54.60253906 C11.18877305 49.72104234 11.18499787 44.83964905 11.18575573 39.95812607 C11.18548411 36.20240286 11.1800049 32.44670231 11.17275429 28.69098663 C11.16957073 26.89042584 11.16760094 25.08986247 11.16686058 23.28929901 C11.16469645 20.77843323 11.15595199 18.26767802 11.14526367 15.75683594 C11.14571686 15.01185852 11.14617004 14.2668811 11.14663696 13.49932861 C11.12727013 10.39350104 10.9900099 7.97002969 10 5 C7.92116373 4.30580103 7.92116373 4.30580103 5.5 4 C3.03125 3.625 3.03125 3.625 1 3 C0.67 2.01 0.34 1.02 0 0 Z " fill="#D7AB4F" transform="translate(1686,117)"/>
<path d="M0 0 C13.53 0 27.06 0 41 0 C41 0.99 41 1.98 41 3 C37.37 3.66 33.74 4.32 30 5 C29.17030361 10.05969611 28.85150547 14.96968951 28.85473633 20.09985352 C28.85137772 20.87818039 28.8480191 21.65650726 28.84455872 22.4584198 C28.8351112 25.01526517 28.83310834 27.57204454 28.83203125 30.12890625 C28.82881297 31.9238233 28.82544848 33.7187401 28.82194519 35.51365662 C28.81596838 39.27351488 28.81410366 43.03335021 28.81469727 46.79321289 C28.81479848 51.57501322 28.80118167 56.35666372 28.78392506 61.13842869 C28.77271794 64.84741367 28.77078076 68.55636352 28.77130699 72.26536369 C28.77013859 74.0261378 28.76578213 75.78691318 28.75797462 77.54767036 C28.39713545 92.94983037 28.39713545 92.94983037 31 108 C36.37448941 113.03550741 42.87239705 112.21364059 49.8125 112.25 C50.78509766 112.270625 51.75769531 112.29125 52.75976562 112.3125 C58.600079 112.34413338 62.93587299 112.03176875 68 109 C69.61299376 106.91788214 69.61299376 106.91788214 70.375 104.5 C70.67148437 103.7265625 70.96796875 102.953125 71.2734375 102.15625 C71.85221313 100.43859329 72.42682238 98.71953285 73 97 C73.99 97 74.98 97 76 97 C76.39109989 104.6916311 75.12516386 111.60046572 73 119 C72 120 72 120 69.26023865 120.12025452 C68.03668167 120.11803391 66.81312469 120.11581329 65.55249023 120.11352539 C64.54277664 120.11374443 64.54277664 120.11374443 63.51266479 120.1139679 C61.27794216 120.11326878 59.0433019 120.10547652 56.80859375 120.09765625 C55.26302638 120.09579206 53.71745843 120.09436816 52.17189026 120.09336853 C48.09642923 120.0895434 44.02100363 120.07971317 39.94555664 120.06866455 C35.78988118 120.05845032 31.63420001 120.05387089 27.47851562 120.04882812 C19.31899413 120.03809089 11.15950147 120.02101454 3 120 C3 119.01 3 118.02 3 117 C4.918125 116.5978125 4.918125 116.5978125 6.875 116.1875 C10.07923563 114.93257759 10.07923563 114.93257759 11.83099365 112.11030579 C13.49051658 102.20323045 13.28937499 92.24465836 13.265625 82.23046875 C13.2669744 80.22032118 13.26891722 78.21017393 13.27142334 76.20002747 C13.27435827 72.00677351 13.27012744 67.81360526 13.26074219 63.62036133 C13.24931168 58.25271687 13.2559402 52.88527167 13.26788712 47.51763439 C13.27511843 43.37490846 13.27281256 39.2322297 13.26763153 35.08950233 C13.26630047 33.10999846 13.26792366 31.13049026 13.27259064 29.15099144 C13.27768084 26.38724797 13.26991221 23.62382693 13.25878906 20.86010742 C13.26283752 20.04804337 13.26688599 19.23597931 13.27105713 18.39930725 C13.23755717 13.89649454 12.81234197 10.20648257 11 6 C7.81057226 3.51933398 3.92474302 3.45285496 0 3 C0 2.01 0 1.02 0 0 Z " fill="#D7AB4F" transform="translate(805,99)"/>
<path d="M0 0 C0.33 0 0.66 0 1 0 C1.30520242 16.24745806 1.53365567 32.49397091 1.67355824 48.74361229 C1.7402779 56.29066803 1.83104025 63.83593166 1.98071289 71.38183594 C2.11127855 77.96764464 2.19438441 84.55215462 2.22315043 91.13922179 C2.23993982 94.62011195 2.27867133 98.09729088 2.37449074 101.57697678 C2.8332729 118.89376663 1.57609578 130.72206175 -10.59973621 143.7028904 C-12 145 -12 145 -14 146 C-14.21064037 129.22300295 -14.36914212 112.44643755 -14.46630955 95.66843605 C-14.51263423 87.87730214 -14.57574031 80.08699182 -14.67895508 72.29638672 C-14.76891959 65.50264169 -14.82678427 58.7094933 -14.84679645 51.91516912 C-14.8584878 48.32028443 -14.88577669 44.7271059 -14.95157051 41.13277054 C-15.02459036 37.11070751 -15.02589326 33.09157205 -15.02172852 29.06884766 C-15.054086 27.88920441 -15.08644348 26.70956116 -15.11978149 25.49417114 C-15.04611596 18.8993519 -14.08531022 15.38545878 -9.62364197 10.40975952 C-8.0954697 8.92628575 -6.55537572 7.45492655 -5 6 C-3.97876355 4.80956077 -2.97435716 3.60410438 -2 2.375 C-1.34 1.59125 -0.68 0.8075 0 0 Z " fill="#C39E35" transform="translate(228,72)"/>
<path d="M0 0 C3.79135177 2.94992391 6.75350655 5.92177249 9.75 9.6875 C10.52859375 10.66074219 11.3071875 11.63398437 12.109375 12.63671875 C12.73328125 13.41660156 13.3571875 14.19648437 14 15 C14.33 15.33 14.66 15.66 15 16 C15.09616807 17.68291696 15.12187691 19.36989561 15.12025452 21.05555725 C15.12162918 22.15077194 15.12300385 23.24598663 15.12442017 24.37438965 C15.12082489 25.58639038 15.11722961 26.79839111 15.11352539 28.04711914 C15.11367142 29.31522934 15.11381744 30.58333954 15.1139679 31.88987732 C15.11425585 35.37732422 15.10835945 38.86473701 15.10139394 42.35217595 C15.09516007 45.99303723 15.09455658 49.63389922 15.09336853 53.27476501 C15.09025531 60.17376972 15.08204205 67.07275865 15.07201904 73.9717564 C15.06085761 81.82410685 15.05534738 89.67645803 15.05032361 97.52881444 C15.03985943 113.68588553 15.02226017 129.84294076 15 146 C13.8105994 144.8187889 12.62290269 143.63581677 11.44346237 142.44466019 C10.10128391 141.10136796 8.73093467 139.78638618 7.35855103 138.47396851 C-2.61193024 127.14859764 -1.31589067 114.31125726 -1.01393938 99.93549013 C-0.95077301 96.41368367 -0.94550172 92.89176187 -0.9336853 89.36947632 C-0.90279169 82.72156318 -0.82099557 76.07532459 -0.72019041 69.42814386 C-0.60782065 61.85141788 -0.55328641 54.2746054 -0.50323606 46.69725156 C-0.39913744 31.13053636 -0.22362426 15.56548538 0 0 Z " fill="#C29C3C" transform="translate(31,72)"/>
<path d="M0 0 C1.98 0 3.96 0 6 0 C8.81081264 6.880623 11.41611708 13.81228391 13.890625 20.8203125 C14.24010193 21.80498505 14.58957886 22.78965759 14.949646 23.8041687 C16.05163933 26.91045139 17.15086654 30.01770436 18.25 33.125 C19.00242051 35.24746095 19.75502299 37.3698574 20.5078125 39.4921875 C22.3406442 44.66071519 24.17121365 49.83003965 26 55 C27.79370439 52.30944341 28.67725646 50.33788269 29.67993164 47.31665039 C29.99688492 46.36879166 30.3138382 45.42093292 30.64039612 44.4443512 C30.97691696 43.42244186 31.31343781 42.40053253 31.66015625 41.34765625 C32.18505898 39.77013832 32.18505898 39.77013832 32.7205658 38.16075134 C33.45977606 35.93639755 34.19682712 33.71132521 34.93188477 31.4855957 C36.05737011 28.07803146 37.18921629 24.67263383 38.32226562 21.26757812 C39.03943606 19.10689479 39.75624504 16.94609144 40.47265625 14.78515625 C40.81120132 13.76527115 41.1497464 12.74538605 41.49855042 11.69459534 C41.81235153 10.74358444 42.12615265 9.79257355 42.44946289 8.81274414 C42.72544815 7.97796036 43.00143341 7.14317657 43.28578186 6.28309631 C43.93706682 4.20117456 44.4966257 2.12193886 45 0 C46.98 0 48.96 0 51 0 C51.20853607 0.63004944 51.41707214 1.26009888 51.63192749 1.90924072 C53.80209535 8.46397616 55.9764787 15.0173022 58.15332031 21.56982422 C58.96527673 24.01575369 59.77615598 26.46204102 60.5859375 28.90869141 C61.74977445 32.42444886 62.91747333 35.93890311 64.0859375 39.453125 C64.62823502 41.0955014 64.62823502 41.0955014 65.18148804 42.77105713 C65.52168976 43.79181335 65.86189148 44.81256958 66.21240234 45.86425781 C66.50996429 46.76138489 66.80752625 47.65851196 67.11410522 48.58282471 C67.93533055 50.82354858 68.88506458 52.89255104 70 55 C70.20631546 54.41419662 70.41263092 53.82839325 70.62519836 53.22483826 C72.78009625 47.10779359 74.93829742 40.99192161 77.09838867 34.87670898 C77.90326711 32.59673261 78.70731321 30.31646222 79.51049805 28.03588867 C80.66755044 24.75100618 81.82762806 21.46720542 82.98828125 18.18359375 C83.34465164 17.16978134 83.70102203 16.15596893 84.06819153 15.11143494 C85.88217444 9.98900844 87.78631447 4.96337972 90 0 C91.98 0 93.96 0 96 0 C93.75545565 7.84188291 91.11544974 15.51340608 88.3671875 23.19140625 C87.92988312 24.41786362 87.49257874 25.64432098 87.04202271 26.90794373 C86.12423849 29.48097354 85.20462558 32.05334014 84.28369141 34.62524414 C83.10196556 37.9260081 81.92517204 41.22850659 80.74972343 44.53151035 C79.62492457 47.68994655 78.4958618 50.84685285 77.3671875 54.00390625 C76.94428436 55.19230606 76.52138123 56.38070587 76.08566284 57.6051178 C75.69500641 58.69392746 75.30434998 59.78273712 74.90185547 60.90454102 C74.55782684 61.86699234 74.21379822 62.82944366 73.85934448 63.82106018 C73 66 73 66 72 67 C70.33382885 67.04063832 68.66611905 67.042721 67 67 C64.20703682 60.2047647 61.67758111 53.35853768 59.328125 46.3984375 C59.00084412 45.435961 58.67356323 44.4734845 58.33636475 43.48184204 C57.30505838 40.44707603 56.27746605 37.41106808 55.25 34.375 C54.54581951 32.30069752 53.84139466 30.22647798 53.13671875 28.15234375 C51.42165599 23.10251687 49.70962984 18.05166863 48 13 C47.3498291 14.86748901 47.3498291 14.86748901 46.68652344 16.77270508 C45.06211864 21.43784561 43.43671923 26.10263911 41.81103516 30.76733398 C41.11057283 32.77765763 40.4103722 34.78807249 39.71044922 36.79858398 C38.69829747 39.70581301 37.68517228 42.61270132 36.671875 45.51953125 C36.36441345 46.40332962 36.0569519 47.28712799 35.74017334 48.19770813 C33.54703745 54.48495536 31.28884046 60.74698563 29 67 C27.35 67 25.7 67 24 67 C20.56632693 58.92713218 17.36781481 50.79735691 14.35546875 42.55859375 C13.94081863 41.4284938 13.52616852 40.29839386 13.09895325 39.13404846 C12.23294852 36.77078492 11.36835377 34.40700425 10.50512695 32.04272461 C9.17884199 28.41381038 7.84448719 24.7879278 6.50976562 21.16210938 C5.6661762 18.85695026 4.82305994 16.55161793 3.98046875 14.24609375 C3.58055222 13.16178574 3.18063568 12.07747772 2.76860046 10.96031189 C2.40434464 9.95819168 2.04008881 8.95607147 1.66479492 7.92358398 C1.34234299 7.04266586 1.01989105 6.16174774 0.68766785 5.25413513 C0 3 0 3 0 0 Z " fill="#FFFFFF" transform="translate(1400,11)"/>
<path d="M0 0 C8.3992755 5.86058773 12.94764479 12.97519837 15.375 22.875 C17.23238504 34.2514834 14.70816157 43.78943063 8.3125 53.1875 C3.59393691 59.1723104 -2.66412054 63.05320449 -10 65 C-19.01338842 66.0258584 -28.21848312 66.08180695 -36 61 C-36.69351563 60.5875 -37.38703125 60.175 -38.1015625 59.75 C-45.46340952 54.89724691 -49.72584471 47.41746166 -52 39 C-53.13917404 27.08064211 -52.09075905 16.57466994 -44.75 6.625 C-33.0171747 -4.57451506 -14.49507164 -8.93946927 0 0 Z M-41 12 C-46.31353845 20.81269792 -47.76678459 30.62420651 -45.3515625 40.70703125 C-42.10279743 48.63457338 -36.62618313 54.81672232 -28.796875 58.30859375 C-21.73846439 61.0245474 -14.70159009 60.95544299 -7.625 58.25 C0.92009716 54.34135934 5.19012837 48.5648819 8.859375 39.9921875 C11.22763608 32.34334428 10.18844657 23.87210198 6.875 16.6875 C2.70835407 9.29200024 -2.24295879 4.48996443 -10.328125 1.66015625 C-22.22346868 -1.27889796 -33.54130213 2.16086664 -41 12 Z " fill="#FFFFFF" transform="translate(619,14)"/>
<path d="M0 0 C8.6625 -0.0928125 8.6625 -0.0928125 17.5 -0.1875 C20.20993164 -0.22846802 20.20993164 -0.22846802 22.97460938 -0.27026367 C24.43098282 -0.27903796 25.88736371 -0.28667966 27.34375 -0.29296875 C28.08012695 -0.30831665 28.81650391 -0.32366455 29.57519531 -0.33947754 C36.18117471 -0.34275865 41.64335546 1.00994461 46.8125 5.375 C51.73470698 11.28164838 52.54087725 15.27421619 52.3515625 22.8984375 C51.75759701 28.13853304 49.45331463 30.62742508 45.75 34.125 C43.46182822 35.68511713 41.30112641 36.90087456 38.828125 38.1171875 C38.11043945 38.47151855 37.39275391 38.82584961 36.65332031 39.19091797 C36.10772461 39.45791504 35.56212891 39.72491211 35 40 C44.1432917 52.28804838 44.1432917 52.28804838 53.671875 64.27734375 C55 66 55 66 55 67 C51.89231869 67.46444468 49.99892903 67.70996128 47 67 C44.07672483 64.57129247 42.03974923 61.603618 39.875 58.5 C39.29363281 57.70851562 38.71226563 56.91703125 38.11328125 56.1015625 C33.35074269 49.6023488 33.35074269 49.6023488 31.63525391 46.65625 C29.60475866 43.37582494 28.27802262 41.36197901 24.46923828 40.28320312 C21.48053784 39.98804797 18.62922594 39.94335824 15.625 40 C12.11875 40 8.6125 40 5 40 C5 48.91 5 57.82 5 67 C3.35 67 1.7 67 0 67 C0 44.89 0 22.78 0 0 Z M5 5 C5 14.9 5 24.8 5 35 C10.878125 35.0928125 10.878125 35.0928125 16.875 35.1875 C18.08913574 35.21481201 19.30327148 35.24212402 20.55419922 35.27026367 C27.9056476 35.32589302 36.01965483 35.26130871 41.97045898 30.38549805 C44.70453854 27.57678789 45.91736659 25.27220418 47.0625 21.5 C46.96581924 16.08587744 45.51530796 12.47543144 41.625 8.6875 C36.72664928 5.53856025 32.99219943 4.75337269 27.16796875 4.8046875 C25.42036255 4.81218018 25.42036255 4.81218018 23.63745117 4.81982422 C22.16896729 4.83803223 20.7004834 4.85624023 19.1875 4.875 C12.1646875 4.936875 12.1646875 4.936875 5 5 Z " fill="#FFFFFF" transform="translate(1641,11)"/>
<path d="M0 0 C8.6625 -0.0928125 8.6625 -0.0928125 17.5 -0.1875 C20.20993164 -0.22846802 20.20993164 -0.22846802 22.97460938 -0.27026367 C24.43098282 -0.27903796 25.88736371 -0.28667966 27.34375 -0.29296875 C28.08012695 -0.30831665 28.81650391 -0.32366455 29.57519531 -0.33947754 C36.18117471 -0.34275865 41.64335546 1.00994461 46.8125 5.375 C51.73470698 11.28164838 52.54087725 15.27421619 52.3515625 22.8984375 C51.75759701 28.13853304 49.45331463 30.62742508 45.75 34.125 C43.46182822 35.68511713 41.30112641 36.90087456 38.828125 38.1171875 C38.11043945 38.47151855 37.39275391 38.82584961 36.65332031 39.19091797 C36.10772461 39.45791504 35.56212891 39.72491211 35 40 C44.1432917 52.28804838 44.1432917 52.28804838 53.671875 64.27734375 C55 66 55 66 55 67 C51.89231869 67.46444468 49.99892903 67.70996128 47 67 C44.07672483 64.57129247 42.03974923 61.603618 39.875 58.5 C39.29363281 57.70851562 38.71226563 56.91703125 38.11328125 56.1015625 C33.35074269 49.6023488 33.35074269 49.6023488 31.63525391 46.65625 C29.60475866 43.37582494 28.27802262 41.36197901 24.46923828 40.28320312 C21.48053784 39.98804797 18.62922594 39.94335824 15.625 40 C12.11875 40 8.6125 40 5 40 C5 48.91 5 57.82 5 67 C3.35 67 1.7 67 0 67 C0 44.89 0 22.78 0 0 Z M5 5 C5 14.9 5 24.8 5 35 C10.878125 35.0928125 10.878125 35.0928125 16.875 35.1875 C18.08913574 35.21481201 19.30327148 35.24212402 20.55419922 35.27026367 C27.9056476 35.32589302 36.01965483 35.26130871 41.97045898 30.38549805 C44.70453854 27.57678789 45.91736659 25.27220418 47.0625 21.5 C46.96581924 16.08587744 45.51530796 12.47543144 41.625 8.6875 C36.72664928 5.53856025 32.99219943 4.75337269 27.16796875 4.8046875 C25.42036255 4.81218018 25.42036255 4.81218018 23.63745117 4.81982422 C22.16896729 4.83803223 20.7004834 4.85624023 19.1875 4.875 C12.1646875 4.936875 12.1646875 4.936875 5 5 Z " fill="#FFFFFF" transform="translate(1116,11)"/>
<path d="M0 0 C8.6625 -0.0928125 8.6625 -0.0928125 17.5 -0.1875 C20.20993164 -0.22846802 20.20993164 -0.22846802 22.97460938 -0.27026367 C24.43098282 -0.27903796 25.88736371 -0.28667966 27.34375 -0.29296875 C28.08012695 -0.30831665 28.81650391 -0.32366455 29.57519531 -0.33947754 C36.18117471 -0.34275865 41.64335546 1.00994461 46.8125 5.375 C51.73470698 11.28164838 52.54087725 15.27421619 52.3515625 22.8984375 C51.75759701 28.13853304 49.45331463 30.62742508 45.75 34.125 C43.46182822 35.68511713 41.30112641 36.90087456 38.828125 38.1171875 C38.11043945 38.47151855 37.39275391 38.82584961 36.65332031 39.19091797 C36.10772461 39.45791504 35.56212891 39.72491211 35 40 C44.1432917 52.28804838 44.1432917 52.28804838 53.671875 64.27734375 C55 66 55 66 55 67 C51.89231869 67.46444468 49.99892903 67.70996128 47 67 C44.07672483 64.57129247 42.03974923 61.603618 39.875 58.5 C39.29363281 57.70851562 38.71226562 56.91703125 38.11328125 56.1015625 C33.35074269 49.6023488 33.35074269 49.6023488 31.63525391 46.65625 C29.60475866 43.37582494 28.27802262 41.36197901 24.46923828 40.28320312 C21.48053784 39.98804797 18.62922594 39.94335824 15.625 40 C12.11875 40 8.6125 40 5 40 C5 48.91 5 57.82 5 67 C3.35 67 1.7 67 0 67 C0 44.89 0 22.78 0 0 Z M5 5 C5 14.9 5 24.8 5 35 C10.878125 35.0928125 10.878125 35.0928125 16.875 35.1875 C18.08913574 35.21481201 19.30327148 35.24212402 20.55419922 35.27026367 C27.9056476 35.32589302 36.01965483 35.26130871 41.97045898 30.38549805 C44.70453854 27.57678789 45.91736659 25.27220418 47.0625 21.5 C46.96581924 16.08587744 45.51530796 12.47543144 41.625 8.6875 C36.72664928 5.53856025 32.99219943 4.75337269 27.16796875 4.8046875 C25.42036255 4.81218018 25.42036255 4.81218018 23.63745117 4.81982422 C22.16896729 4.83803223 20.7004834 4.85624023 19.1875 4.875 C12.1646875 4.936875 12.1646875 4.936875 5 5 Z " fill="#FFFFFF" transform="translate(440,11)"/>
<path d="M0 0 C6 0 6 0 8.53515625 2.5 C9.39597798 3.65317629 10.23726605 4.82109435 11.0625 6 C12.02029917 7.29302887 12.98001262 8.58464144 13.94140625 9.875 C14.43914551 10.55304687 14.93688477 11.23109375 15.44970703 11.9296875 C18.02766844 15.37238242 20.76810531 18.67914298 23.5 22 C32.59614922 33.14691253 41.36433644 44.48578192 50 56 C50.33 37.52 50.66 19.04 51 0 C52.65 0 54.3 0 56 0 C56 22.11 56 44.22 56 67 C51 67 51 67 49.3059082 65.64575195 C48.80921631 65.01628662 48.31252441 64.38682129 47.80078125 63.73828125 C47.23673584 63.03823975 46.67269043 62.33819824 46.09155273 61.61694336 C45.50446533 60.85647705 44.91737793 60.09601074 44.3125 59.3125 C43.69383057 58.53592041 43.07516113 57.75934082 42.43774414 56.95922852 C40.60759176 54.65261483 38.79987898 52.33028307 37 50 C36.53368164 49.39833008 36.06736328 48.79666016 35.58691406 48.17675781 C33.56833975 45.56677391 31.5639587 42.94641934 29.56640625 40.3203125 C25.58543077 35.12718609 21.41534324 30.08433671 17.2734375 25.01953125 C13.48672682 20.36973974 9.74607379 15.68259223 6 11 C5.67 29.48 5.34 47.96 5 67 C3.35 67 1.7 67 0 67 C0 44.89 0 22.78 0 0 Z " fill="#FFFFFF" transform="translate(915,11)"/>
<path d="M0 0 C6 0 6 0 8.53515625 2.5 C9.39597798 3.65317629 10.23726605 4.82109435 11.0625 6 C12.02029917 7.29302887 12.98001262 8.58464144 13.94140625 9.875 C14.43914551 10.55304687 14.93688477 11.23109375 15.44970703 11.9296875 C18.02766844 15.37238242 20.76810531 18.67914298 23.5 22 C32.59614922 33.14691253 41.36433644 44.48578192 50 56 C50.33 37.52 50.66 19.04 51 0 C52.65 0 54.3 0 56 0 C56 22.11 56 44.22 56 67 C51 67 51 67 49.3059082 65.64575195 C48.80921631 65.01628662 48.31252441 64.38682129 47.80078125 63.73828125 C47.23673584 63.03823975 46.67269043 62.33819824 46.09155273 61.61694336 C45.50446533 60.85647705 44.91737793 60.09601074 44.3125 59.3125 C43.69383057 58.53592041 43.07516113 57.75934082 42.43774414 56.95922852 C40.60759176 54.65261483 38.79987898 52.33028307 37 50 C36.53368164 49.39833008 36.06736328 48.79666016 35.58691406 48.17675781 C33.56833975 45.56677391 31.5639587 42.94641934 29.56640625 40.3203125 C25.58543077 35.12718609 21.41534324 30.08433671 17.2734375 25.01953125 C13.48672682 20.36973974 9.74607379 15.68259223 6 11 C5.67 29.48 5.34 47.96 5 67 C3.35 67 1.7 67 0 67 C0 44.89 0 22.78 0 0 Z " fill="#FFFFFF" transform="translate(651,11)"/>
<path d="M0 0 C2.31 0 4.62 0 7 0 C7.86854743 1.85934798 8.73702004 3.71873091 9.60546875 5.578125 C9.88116699 6.16839981 10.15686523 6.75867462 10.44091797 7.36683655 C11.99018526 10.68436073 13.53847439 14.00233727 15.08520508 17.32104492 C15.7338739 18.71273384 16.3825557 20.10441671 17.03125 21.49609375 C17.52337227 22.55191902 17.52337227 22.55191902 18.0254364 23.6290741 C19.94739393 27.75024119 21.8761938 31.86809783 23.81230164 35.9826355 C24.99293023 38.49318789 26.1696979 41.00553902 27.34585571 43.51818848 C28.16813975 45.27122565 28.99550885 47.02187475 29.82299805 48.77246094 C32.62569768 54.76810387 35.05917654 60.67064789 37 67 C35.02 67 33.04 67 31 67 C29.66180502 64.3773768 28.3292849 61.75213401 27 59.125 C26.6184375 58.37863281 26.236875 57.63226563 25.84375 56.86328125 C25.30234375 55.79013672 25.30234375 55.79013672 24.75 54.6953125 C24.41484375 54.03547363 24.0796875 53.37563477 23.734375 52.69580078 C23 51 23 51 23 49 C10.13 49.33 -2.74 49.66 -16 50 C-18.64 55.61 -21.28 61.22 -24 67 C-25.98 67 -27.96 67 -30 67 C-28.1153122 60.93024069 -25.8569653 55.22744233 -23.0859375 49.51171875 C-22.7144458 48.73396591 -22.3429541 47.95621307 -21.96020508 47.15489197 C-21.17317266 45.50814655 -20.38388528 43.86247717 -19.59246826 42.21783447 C-17.55083973 37.9746002 -15.52585399 33.72343865 -13.5 29.47265625 C-13.10557709 28.6459845 -12.71115417 27.81931274 -12.30477905 26.96759033 C-8.05449396 18.04443991 -3.97742364 9.04805729 0 0 Z M3 7 C0.71397225 11.78371066 -1.56447421 16.57092872 -3.8359375 21.36157227 C-4.60989834 22.99114291 -5.38593006 24.61973165 -6.1640625 26.24731445 C-7.28149193 28.58550703 -8.39145222 30.92711736 -9.5 33.26953125 C-9.84998047 33.99775589 -10.19996094 34.72598053 -10.56054688 35.47627258 C-12.48926548 39.55837934 -12.48926548 39.55837934 -13 44 C-2.11 44 8.78 44 20 44 C18.10594689 38.31784067 16.36713529 33.32608006 13.86328125 27.99609375 C13.57897751 27.38733902 13.29467377 26.77858429 13.00175476 26.15138245 C12.10994636 24.24455276 11.21138319 22.34100311 10.3125 20.4375 C9.6994155 19.12977017 9.08678178 17.82182892 8.47460938 16.51367188 C6.98825841 13.33999516 5.49584 10.16921737 4 7 C3.67 7 3.34 7 3 7 Z " fill="#FFFFFF" transform="translate(1362,11)"/>
<path d="M0 0 C2.31 0 4.62 0 7 0 C7.86854743 1.85934798 8.73702004 3.71873091 9.60546875 5.578125 C9.88116699 6.16839981 10.15686523 6.75867462 10.44091797 7.36683655 C11.99018526 10.68436073 13.53847439 14.00233727 15.08520508 17.32104492 C15.7338739 18.71273384 16.3825557 20.10441671 17.03125 21.49609375 C17.52337227 22.55191902 17.52337227 22.55191902 18.0254364 23.6290741 C19.94739393 27.75024119 21.8761938 31.86809783 23.81230164 35.9826355 C24.99293023 38.49318789 26.1696979 41.00553902 27.34585571 43.51818848 C28.16813975 45.27122565 28.99550885 47.02187475 29.82299805 48.77246094 C32.62569768 54.76810387 35.05917654 60.67064789 37 67 C35.02 67 33.04 67 31 67 C29.66180502 64.3773768 28.3292849 61.75213401 27 59.125 C26.6184375 58.37863281 26.236875 57.63226563 25.84375 56.86328125 C25.30234375 55.79013672 25.30234375 55.79013672 24.75 54.6953125 C24.41484375 54.03547363 24.0796875 53.37563477 23.734375 52.69580078 C23 51 23 51 23 49 C10.13 49.33 -2.74 49.66 -16 50 C-18.64 55.61 -21.28 61.22 -24 67 C-25.98 67 -27.96 67 -30 67 C-28.1153122 60.93024069 -25.8569653 55.22744233 -23.0859375 49.51171875 C-22.7144458 48.73396591 -22.3429541 47.95621307 -21.96020508 47.15489197 C-21.17317266 45.50814655 -20.38388528 43.86247717 -19.59246826 42.21783447 C-17.55083973 37.9746002 -15.52585399 33.72343865 -13.5 29.47265625 C-13.10557709 28.6459845 -12.71115417 27.81931274 -12.30477905 26.96759033 C-8.05449396 18.04443991 -3.97742364 9.04805729 0 0 Z M3 7 C0.71397225 11.78371066 -1.56447421 16.57092872 -3.8359375 21.36157227 C-4.60989834 22.99114291 -5.38593006 24.61973165 -6.1640625 26.24731445 C-7.28149193 28.58550703 -8.39145222 30.92711736 -9.5 33.26953125 C-9.84998047 33.99775589 -10.19996094 34.72598053 -10.56054688 35.47627258 C-12.48926548 39.55837934 -12.48926548 39.55837934 -13 44 C-2.11 44 8.78 44 20 44 C18.10594689 38.31784067 16.36713529 33.32608006 13.86328125 27.99609375 C13.57897751 27.38733902 13.29467377 26.77858429 13.00175476 26.15138245 C12.10994636 24.24455276 11.21138319 22.34100311 10.3125 20.4375 C9.6994155 19.12977017 9.08678178 17.82182892 8.47460938 16.51367188 C6.98825841 13.33999516 5.49584 10.16921737 4 7 C3.67 7 3.34 7 3 7 Z " fill="#FFFFFF" transform="translate(750,11)"/>
<path d="M0 0 C15.84 0 31.68 0 48 0 C48 1.65 48 3.3 48 5 C33.81 5 19.62 5 5 5 C5 13.58 5 22.16 5 31 C17.87 31 30.74 31 44 31 C44 32.65 44 34.3 44 36 C31.13 36 18.26 36 5 36 C5 44.58 5 53.16 5 62 C19.19 62 33.38 62 48 62 C48 63.65 48 65.3 48 67 C32.16 67 16.32 67 0 67 C0 44.89 0 22.78 0 0 Z " fill="#FFFFFF" transform="translate(1577,11)"/>
<path d="M0 0 C15.84 0 31.68 0 48 0 C48 1.65 48 3.3 48 5 C33.81 5 19.62 5 5 5 C5 13.58 5 22.16 5 31 C17.87 31 30.74 31 44 31 C44 32.65 44 34.3 44 36 C31.13 36 18.26 36 5 36 C5 44.58 5 53.16 5 62 C19.19 62 33.38 62 48 62 C48 63.65 48 65.3 48 67 C32.16 67 16.32 67 0 67 C0 44.89 0 22.78 0 0 Z " fill="#FFFFFF" transform="translate(376,11)"/>
<path d="M0 0 C0.7530542 0.00088623 1.5061084 0.00177246 2.28198242 0.00268555 C10.34774257 0.17337571 16.46189918 2.39441644 22.8125 7.375 C22.4825 8.695 22.1525 10.015 21.8125 11.375 C20.1875 12.125 20.1875 12.125 17.8125 12.375 C15.77914791 11.09310412 13.78168846 9.75343192 11.8125 8.375 C5.23185309 5.24135862 -2.94549007 5.23745265 -9.75 7.625 C-13.31400046 10.18376956 -14.78194861 12.04247399 -16.0625 16.25 C-16.22517989 20.31699722 -15.56438912 22.06176062 -13.1875 25.375 C-6.83780337 29.61629559 0.71070928 31.11462914 8.03515625 32.82226562 C14.61513251 34.53191011 19.32413662 37.17736255 23.8125 42.375 C25.69144454 48.01183363 25.55970942 54.13337174 23.6875 59.75 C19.95802798 64.97126082 15.9536004 67.72915609 9.8125 69.375 C-2.29757887 70.5324019 -13.13176748 69.52539184 -22.9375 61.5625 C-23.68 60.840625 -24.4225 60.11875 -25.1875 59.375 C-24.5275 58.055 -23.8675 56.735 -23.1875 55.375 C-19.58068242 55.375 -18.37643358 56.32281223 -15.375 58.25 C-7.62950859 62.97530699 -1.271885 64.32749122 7.8125 63.375 C12.39521011 62.08862523 15.05512193 60.40778828 17.875 56.5625 C19.02413954 52.65542555 18.90094316 50.29339538 17.8125 46.375 C13.75715071 40.53529702 5.67559153 39.26554633 -0.88671875 37.63842773 C-16.80444433 33.65392915 -16.80444433 33.65392915 -21.3515625 26.55859375 C-23.08480439 22.03110676 -22.70363362 17.12852688 -22.1875 12.375 C-19.70833394 7.23302595 -16.13191203 3.86326644 -11.0390625 1.2890625 C-7.3507005 0.10676564 -3.8357197 -0.008052 0 0 Z " fill="#FFFFFF" transform="translate(1730.1875,9.625)"/>
<path d="M0 0 C0.7530542 0.00088623 1.5061084 0.00177246 2.28198242 0.00268555 C10.34774257 0.17337571 16.46189918 2.39441644 22.8125 7.375 C22.4825 8.695 22.1525 10.015 21.8125 11.375 C20.1875 12.125 20.1875 12.125 17.8125 12.375 C15.77914791 11.09310412 13.78168846 9.75343192 11.8125 8.375 C5.23185309 5.24135862 -2.94549007 5.23745265 -9.75 7.625 C-13.31400046 10.18376956 -14.78194861 12.04247399 -16.0625 16.25 C-16.22517989 20.31699722 -15.56438912 22.06176062 -13.1875 25.375 C-6.83780337 29.61629559 0.71070928 31.11462914 8.03515625 32.82226562 C14.61513251 34.53191011 19.32413662 37.17736255 23.8125 42.375 C25.69144454 48.01183363 25.55970942 54.13337174 23.6875 59.75 C19.95802798 64.97126082 15.9536004 67.72915609 9.8125 69.375 C-2.29757887 70.5324019 -13.13176748 69.52539184 -22.9375 61.5625 C-23.68 60.840625 -24.4225 60.11875 -25.1875 59.375 C-24.5275 58.055 -23.8675 56.735 -23.1875 55.375 C-19.58068242 55.375 -18.37643358 56.32281223 -15.375 58.25 C-7.62950859 62.97530699 -1.271885 64.32749122 7.8125 63.375 C12.39521011 62.08862523 15.05512193 60.40778828 17.875 56.5625 C19.02413954 52.65542555 18.90094316 50.29339538 17.8125 46.375 C13.75715071 40.53529702 5.67559153 39.26554633 -0.88671875 37.63842773 C-16.80444433 33.65392915 -16.80444433 33.65392915 -21.3515625 26.55859375 C-23.08480439 22.03110676 -22.70363362 17.12852688 -22.1875 12.375 C-19.70833394 7.23302595 -16.13191203 3.86326644 -11.0390625 1.2890625 C-7.3507005 0.10676564 -3.8357197 -0.008052 0 0 Z " fill="#FFFFFF" transform="translate(529.1875,9.625)"/>
<path d="M0 0 C32 0 32 0 42 4 C47.41232009 9.41232009 49.14300506 12.58211543 49.25 20.3125 C49.17704252 26.29501348 48.72267766 30.09004822 44.5234375 34.578125 C36.41618656 42.2041236 28.16029013 42.41593479 17.5 42.1875 C15.69402344 42.16719727 15.69402344 42.16719727 13.8515625 42.14648438 C10.90084675 42.11135681 7.95036345 42.05755767 5 42 C5 50.25 5 58.5 5 67 C3.35 67 1.7 67 0 67 C0 44.89 0 22.78 0 0 Z M5 5 C5 15.56 5 26.12 5 37 C10.6925 37.0928125 10.6925 37.0928125 16.5 37.1875 C17.68013672 37.21481201 18.86027344 37.24212402 20.07617188 37.27026367 C27.25450008 37.32660943 33.12441189 36.90485257 39.05859375 32.45703125 C42.62925454 28.19853779 44.46270886 24.64935242 44 19 C43.10026607 14.70474845 41.76135965 11.78193693 38.6875 8.625 C33.87531611 5.71530742 29.53425432 4.74706954 23.9453125 4.8046875 C22.94516113 4.80968262 21.94500977 4.81467773 20.91455078 4.81982422 C19.03872314 4.84713623 19.03872314 4.84713623 17.125 4.875 C11.123125 4.936875 11.123125 4.936875 5 5 Z " fill="#FFFFFF" transform="translate(312,11)"/>
<path d="M0 0 C1.65 0 3.3 0 5 0 C5.01458252 1.21469971 5.02916504 2.42939941 5.04418945 3.6809082 C5.10263609 8.23425146 5.179862 12.78712389 5.26245117 17.34008789 C5.29548413 19.30192359 5.32358167 21.2638494 5.34643555 23.22583008 C5.11159538 40.28943474 5.11159538 40.28943474 10.875 56 C16.79568106 61.5724057 22.32170761 62.31571057 30.1796875 62.2109375 C35.76972894 61.79284576 40.10071415 60.38204334 43.875 56.125 C48.96170814 48.64454685 49.15107991 41.00833502 49.31640625 32.2265625 C49.33718735 31.3028183 49.35796844 30.3790741 49.37937927 29.42733765 C49.44446119 26.49329656 49.50356643 23.55917038 49.5625 20.625 C49.6057246 18.62889765 49.64934012 16.63280373 49.69335938 14.63671875 C49.8000999 9.75789844 49.90148248 4.87899301 50 0 C51.65 0 53.3 0 55 0 C55.07645954 6.52865035 55.12877088 13.05718396 55.16479492 19.58618164 C55.17982277 21.8043245 55.20025077 24.02243793 55.22631836 26.24047852 C55.26296624 29.44034108 55.27978688 32.63980861 55.29296875 35.83984375 C55.30845261 36.82145981 55.32393646 37.80307587 55.33988953 38.81443787 C55.3421003 47.98850548 53.52770633 55.54135193 47.0546875 62.26953125 C40.04947608 68.1693576 31.70696772 68.85868395 22.8515625 68.4453125 C14.93421971 67.52991993 9.350334 64.17636597 4.25390625 58.13671875 C0.07312056 51.01245155 -0.41709615 44.80467109 -0.29296875 36.71875 C-0.28660149 35.13761414 -0.28660149 35.13761414 -0.28010559 33.52453613 C-0.26341405 30.18275595 -0.22577909 26.8415956 -0.1875 23.5 C-0.17244088 21.22396709 -0.15875463 18.94792465 -0.14648438 16.671875 C-0.11354181 11.11437454 -0.06343806 5.55723158 0 0 Z " fill="#FFFFFF" transform="translate(1042,11)"/>
<path d="M0 0 C3.32791619 -0.7131249 4.83239582 -1.00837227 8 0 C10.74547345 2.96935326 12.63455017 6.41501175 14.68945312 9.88378906 C17.39692389 14.25568857 20.41410893 18.42268778 23.375 22.625 C23.99455566 23.51413086 24.61411133 24.40326172 25.25244141 25.31933594 C25.83687012 26.1549707 26.42129883 26.99060547 27.0234375 27.8515625 C27.54856934 28.60260254 28.07370117 29.35364258 28.61474609 30.12744141 C30.0058495 32.10447252 30.0058495 32.10447252 32 34 C32.65484375 33.04222656 33.3096875 32.08445313 33.984375 31.09765625 C39.15175006 23.55321214 44.3552992 16.0359084 49.625 8.5625 C50.14545898 7.82330322 50.66591797 7.08410645 51.20214844 6.32250977 C51.68458008 5.63987061 52.16701172 4.95723145 52.6640625 4.25390625 C53.09154785 3.64877197 53.5190332 3.0436377 53.95947266 2.42016602 C55 1 55 1 56 0 C58.33297433 -0.04092937 60.66705225 -0.04241723 63 0 C60.01919743 5.46600181 56.62209017 10.42558269 52.9375 15.4375 C52.37256836 16.22898437 51.80763672 17.02046875 51.22558594 17.8359375 C48.5194283 21.62183235 45.78979647 25.30115756 42.73828125 28.81640625 C33.10462848 40.40415616 33.43226157 52.36943081 34 67 C32.35 67 30.7 67 29 67 C29.03778564 66.31188232 29.07557129 65.62376465 29.11450195 64.91479492 C29.83189192 47.90826636 27.79893285 37.38500055 16.86669922 24.28076172 C13.65160405 20.35250915 10.75938084 16.19314203 7.8125 12.0625 C7.26045898 11.31033203 6.70841797 10.55816406 6.13964844 9.78320312 C5.62563477 9.08259766 5.11162109 8.38199219 4.58203125 7.66015625 C4.13061768 7.04793213 3.6792041 6.43570801 3.21411133 5.80493164 C1.95703141 3.93612171 0.96292601 2.03377822 0 0 Z " fill="#FFFFFF" transform="translate(1502,11)"/>
<path d="M0 0 C3.32791619 -0.7131249 4.83239582 -1.00837227 8 0 C10.74547345 2.96935326 12.63455017 6.41501175 14.68945312 9.88378906 C17.39692389 14.25568857 20.41410893 18.42268778 23.375 22.625 C23.99455566 23.51413086 24.61411133 24.40326172 25.25244141 25.31933594 C25.83687012 26.1549707 26.42129883 26.99060547 27.0234375 27.8515625 C27.54856934 28.60260254 28.07370117 29.35364258 28.61474609 30.12744141 C30.0058495 32.10447252 30.0058495 32.10447252 32 34 C32.65484375 33.04222656 33.3096875 32.08445313 33.984375 31.09765625 C39.15175006 23.55321214 44.3552992 16.0359084 49.625 8.5625 C50.14545898 7.82330322 50.66591797 7.08410645 51.20214844 6.32250977 C51.68458008 5.63987061 52.16701172 4.95723145 52.6640625 4.25390625 C53.09154785 3.64877197 53.5190332 3.0436377 53.95947266 2.42016602 C55 1 55 1 56 0 C58.33297433 -0.04092937 60.66705225 -0.04241723 63 0 C60.01919743 5.46600181 56.62209017 10.42558269 52.9375 15.4375 C52.37256836 16.22898437 51.80763672 17.02046875 51.22558594 17.8359375 C48.5194283 21.62183235 45.78979647 25.30115756 42.73828125 28.81640625 C33.10462848 40.40415616 33.43226157 52.36943081 34 67 C32.35 67 30.7 67 29 67 C29.03778564 66.31188232 29.07557129 65.62376465 29.11450195 64.91479492 C29.83189192 47.90826636 27.79893285 37.38500055 16.86669922 24.28076172 C13.65160405 20.35250915 10.75938084 16.19314203 7.8125 12.0625 C7.26045898 11.31033203 6.70841797 10.55816406 6.13964844 9.78320312 C5.62563477 9.08259766 5.11162109 8.38199219 4.58203125 7.66015625 C4.13061768 7.04793213 3.6792041 6.43570801 3.21411133 5.80493164 C1.95703141 3.93612171 0.96292601 2.03377822 0 0 Z " fill="#FFFFFF" transform="translate(1176,11)"/>
<path d="M0 0 C0.09348743 16.45508106 0.16400069 32.91007582 0.20724869 49.36535835 C0.22786424 57.0060324 0.25596538 64.64654132 0.30175781 72.28710938 C0.34165667 78.94750196 0.36744014 85.60777495 0.37635398 92.26828372 C0.38156365 95.79425226 0.39378665 99.31987869 0.42292023 102.84573746 C0.45519761 106.7841045 0.45595744 110.72213841 0.45410156 114.66064453 C0.47567322 116.40960274 0.47567322 116.40960274 0.49768066 118.19389343 C0.46603445 124.39142256 0.26396242 128.3279628 -4 133 C-4.33 133 -4.66 133 -5 133 C-5.09341617 116.24960917 -5.16396575 99.49930276 -5.20724869 82.74871445 C-5.22787935 74.97122239 -5.25600938 67.19389212 -5.30175781 59.41650391 C-5.34161039 52.63820325 -5.36742915 45.86001975 -5.37635398 39.0816052 C-5.38157149 35.49198736 -5.39384439 31.90270474 -5.42292023 28.31319427 C-5.45510624 24.30727734 -5.45596045 20.30194421 -5.45410156 16.29589844 C-5.46848267 15.10403427 -5.48286377 13.9121701 -5.49768066 12.68418884 C-5.49218201 11.59326431 -5.48668335 10.50233978 -5.48101807 9.37835693 C-5.48470524 8.43075375 -5.48839241 7.48315056 -5.49219131 6.50683212 C-4.97396249 3.86738558 -3.20936777 0 0 0 Z " fill="#E0C66C" transform="translate(229,72)"/>
<path d="M0 0 C3.32433085 1.10811028 3.81862244 1.73158463 5.8125 4.45703125 C6.33070312 5.15763672 6.84890625 5.85824219 7.3828125 6.58007812 C8.18332031 7.68512695 8.18332031 7.68512695 9 8.8125 C9.80050781 9.90014648 9.80050781 9.90014648 10.6171875 11.00976562 C11.61659757 12.36841638 12.61302885 13.72926708 13.60546875 15.09301758 C14.97498424 17.03969547 14.97498424 17.03969547 16.6574707 18.80639648 C18.56096693 21.91658263 18.33903236 24.32945411 18.29296875 27.953125 C18.28872391 28.61334656 18.28447906 29.27356812 18.28010559 29.95379639 C18.26337435 32.05295391 18.22573551 34.15113496 18.1875 36.25 C18.17244584 37.67706942 18.15875871 39.10415396 18.14648438 40.53125 C18.11349001 44.02114817 18.06174743 47.5104787 18 51 C17.24372314 50.24074219 16.48744629 49.48148438 15.70825195 48.69921875 C14.23295779 47.22884534 12.75124696 45.76438642 11.23901367 44.33203125 C4.22973742 37.55258519 -0.21083659 31.40074381 -0.84375 21.43359375 C-0.95027435 14.26884519 -0.61567588 7.13965443 0 0 Z " fill="#F3E193" transform="translate(57,107)"/>
<path d="M0 0 C1.65 0 3.3 0 5 0 C5 20.46 5 40.92 5 62 C18.2 62 31.4 62 45 62 C45 63.65 45 65.3 45 67 C30.15 67 15.3 67 0 67 C0 44.89 0 22.78 0 0 Z " fill="#FFFFFF" transform="translate(1280,11)"/>
<path d="M0 0 C1.65 0 3.3 0 5 0 C5 20.46 5 40.92 5 62 C18.2 62 31.4 62 45 62 C45 63.65 45 65.3 45 67 C30.15 67 15.3 67 0 67 C0 44.89 0 22.78 0 0 Z " fill="#FFFFFF" transform="translate(802,11)"/>
<path d="M0 0 C1.65 0 3.3 0 5 0 C5.1274123 7.36471965 5.21460754 14.7291521 5.2746582 22.09472656 C5.29970793 24.59711326 5.33375742 27.09942748 5.37719727 29.6015625 C5.43826661 33.21112007 5.46630674 36.81970519 5.48828125 40.4296875 C5.51408768 41.53738495 5.5398941 42.6450824 5.56648254 43.78634644 C5.56933565 51.79703929 4.07273145 58.90086379 -1.75810242 64.76950073 C-6.75460054 68.80234538 -12.54407448 68.66463465 -18.72265625 68.4140625 C-25.82300741 67.51699787 -29.55624142 63.83088534 -33.93359375 58.390625 C-34.28550781 57.93171875 -34.63742187 57.4728125 -35 57 C-34.34 55.68 -33.68 54.36 -33 53 C-31.3125 53.125 -31.3125 53.125 -29 54 C-28.195625 54.969375 -27.39125 55.93875 -26.5625 56.9375 C-23.45632437 60.64975868 -21.6273955 61.73630155 -16.859375 62.21484375 C-12.12308547 62.41088222 -8.69911734 62.26392706 -5 59 C-1.84922899 53.82373334 -0.90520111 49.01017421 -0.79467773 43.02612305 C-0.77473251 42.06550461 -0.75478729 41.10488617 -0.73423767 40.11515808 C-0.71752518 39.0910231 -0.70081268 38.06688812 -0.68359375 37.01171875 C-0.66281265 35.95338333 -0.64203156 34.89504791 -0.62062073 33.80464172 C-0.55536897 30.43232559 -0.49635363 27.05993326 -0.4375 23.6875 C-0.3942916 21.39777866 -0.35067657 19.10806495 -0.30664062 16.81835938 C-0.19971259 11.21231955 -0.09790137 5.60620434 0 0 Z " fill="#FFFFFF" transform="translate(1020,11)"/>
<path d="M0 0 C0.09341723 16.62000672 0.16396626 33.23992836 0.20724869 49.86013412 C0.22787913 57.57709272 0.25600873 65.29388825 0.30175781 73.01074219 C0.34161108 79.73630514 0.36742931 86.46175001 0.37635398 93.18742776 C0.38157138 96.74910108 0.39384353 100.31043655 0.42292023 103.87200165 C0.45510691 107.84669861 0.45596037 111.82106423 0.45410156 115.79589844 C0.46848267 116.97841187 0.48286377 118.16092529 0.49768066 119.37927246 C0.49218201 120.46178284 0.48668335 121.54429321 0.48101807 122.65960693 C0.48470524 123.59983578 0.48839241 124.54006462 0.49219131 125.50878525 C-0.14144376 128.71591427 -1.54681152 129.92502687 -4 132 C-4.07003679 115.23232193 -4.12296195 98.4646912 -4.15543652 81.69690228 C-4.17091484 73.91157331 -4.1920227 66.12633514 -4.22631836 58.34106445 C-4.25619129 51.55654793 -4.27556798 44.77209716 -4.28226548 37.9875167 C-4.28618135 34.39408309 -4.29540395 30.80083761 -4.31719017 27.20746422 C-4.34129651 23.19901508 -4.34197136 19.19089439 -4.34057617 15.18237305 C-4.351362 13.9869136 -4.36214783 12.79145416 -4.3732605 11.55976868 C-4.36913651 10.47021881 -4.36501251 9.38066895 -4.36076355 8.25810242 C-4.36352893 7.30957744 -4.36629431 6.36105246 -4.36914349 5.38378429 C-3.99508288 2.96824717 -2.93409258 0 0 0 Z " fill="#CFAF4C" transform="translate(224,78)"/>
<path d="M0 0 C1.96993637 1.17374134 1.96993637 1.17374134 4 3 C4.49219131 5.36816692 4.49219131 5.36816692 4.48101807 8.22013855 C4.48926605 9.84184212 4.48926605 9.84184212 4.49768066 11.49630737 C4.48329956 12.68241608 4.46891846 13.86852478 4.45410156 15.09057617 C4.45468567 16.33947128 4.45526978 17.58836639 4.45587158 18.87510681 C4.45356028 22.30081688 4.43348497 25.72556576 4.40557575 29.15110564 C4.38059042 32.73053522 4.37822238 36.30997726 4.37347412 39.88948059 C4.36103583 46.66812056 4.32820293 53.44650285 4.28807616 60.22502929 C4.24338479 67.94196519 4.22137808 75.65891333 4.20129442 83.3759464 C4.15947084 99.25078023 4.08910251 115.1253569 4 131 C1.55692229 128.93063621 0.14308126 127.71966241 -0.49219131 124.52440262 C-0.48850414 123.59154812 -0.48481697 122.65869362 -0.48101807 121.6975708 C-0.48651672 120.62347458 -0.49201538 119.54937836 -0.49768066 118.44273376 C-0.48329956 117.26957108 -0.46891846 116.09640839 -0.45410156 114.88769531 C-0.45468567 113.64840775 -0.45526978 112.40912018 -0.45587158 111.13227844 C-0.45356279 107.73761338 -0.43350847 104.34392219 -0.40557575 100.94942951 C-0.38056466 97.40070275 -0.37822035 93.85196292 -0.37347412 90.30316162 C-0.36104342 83.58476079 -0.32822076 76.86662042 -0.28807616 70.14833426 C-0.24336121 62.49908892 -0.22137215 54.84983112 -0.20129442 47.20048761 C-0.15948802 31.46684091 -0.0891344 15.73345405 0 0 Z " fill="#D9BC54" transform="translate(31,72)"/>
<path d="M0 0 C1.66721404 1.66611911 3.33377404 3.33289275 5 5 C6.10794922 6.0526001 6.10794922 6.0526001 7.23828125 7.12646484 C11.91740538 12.11070135 13.53503319 15.64660982 13.5625 22.5390625 C13.44752409 25.24240467 13.23140812 27.92951211 13 30.625 C12.91145703 32.02449784 12.82679226 33.42424668 12.74609375 34.82421875 C12.53528575 38.22056982 12.28580326 41.60927609 12 45 C5.03628546 38.1743456 -0.42738487 32.54069516 -0.78125 22.36328125 C-0.72854785 19.66888361 -0.63641659 17.00125806 -0.5 14.3125 C-0.45976515 12.91742151 -0.42328214 11.52222957 -0.390625 10.12695312 C-0.2970993 6.74833715 -0.16614857 3.37569159 0 0 Z " fill="#CAA654" transform="translate(75,129)"/>
<path d="M0 0 C1.65 0 3.3 0 5 0 C5 22.11 5 44.22 5 67 C3.35 67 1.7 67 0 67 C0 44.89 0 22.78 0 0 Z " fill="#FFFFFF" transform="translate(890,11)"/>
<path d="M0 0 C5.95436404 5.80168804 5.95436404 5.80168804 6.11352539 9.98095703 C6.10828857 11.22731934 6.10305176 12.47368164 6.09765625 13.7578125 C6.0962413 14.42086395 6.09482635 15.08391541 6.09336853 15.76705933 C6.08776754 17.88641863 6.075215 20.00567259 6.0625 22.125 C6.05748512 23.56119639 6.05292219 24.99739444 6.04882812 26.43359375 C6.03779782 29.95576345 6.02053259 33.47787145 6 37 C0.04563596 31.19831196 0.04563596 31.19831196 -0.11352539 27.01904297 C-0.10828857 25.77268066 -0.10305176 24.52631836 -0.09765625 23.2421875 C-0.0962413 22.57913605 -0.09482635 21.91608459 -0.09336853 21.23294067 C-0.08776754 19.11358137 -0.075215 16.99432741 -0.0625 14.875 C-0.05748512 13.43880361 -0.05292219 12.00260556 -0.04882812 10.56640625 C-0.03779782 7.04423655 -0.02053259 3.52212855 0 0 Z " fill="#E1C677" transform="translate(75,129)"/>
<path d="M0 0 C1.485 0.99 1.485 0.99 3 2 C3.34057617 5.07275391 3.34057617 5.07275391 3.29296875 8.9765625 C3.28872391 9.66181 3.28447906 10.3470575 3.28010559 11.05307007 C3.26329753 13.24411129 3.22564405 15.43423632 3.1875 17.625 C3.17245579 19.10936173 3.15876693 20.59373785 3.14648438 22.078125 C3.1133879 25.71904833 3.06159207 29.35943478 3 33 C1.51831055 31.9284668 1.51831055 31.9284668 0 30 C-0.34057617 26.90551758 -0.34057617 26.90551758 -0.29296875 23.14453125 C-0.28872391 22.48289474 -0.28447906 21.82125824 -0.28010559 21.13957214 C-0.26333693 19.0301309 -0.22569099 16.92165154 -0.1875 14.8125 C-0.17245068 13.38087319 -0.1587627 11.94923138 -0.14648438 10.51757812 C-0.1134403 7.01140712 -0.06167167 3.50579746 0 0 Z " fill="#D3B362" transform="translate(81,137)"/>
</svg>
